<svg width="50" height="25" viewBox="0 0 50 25" fill="none" xmlns="http://www.w3.org/2000/svg">
<rect x="0.5" y="0.5" width="49" height="24" fill="#6D77AF"/>
<path d="M12.368 14.792H11.528L10.272 12.184H8.32V14.792H7.52V8.208H10.408C11.0107 8.208 11.448 8.344 11.72 8.616C11.992 8.888 12.128 9.28533 12.128 9.808V10.584C12.128 11 12.0427 11.336 11.872 11.592C11.7067 11.848 11.44 12.0213 11.072 12.112L12.368 14.792ZM10.448 11.464C10.752 11.464 10.9733 11.3893 11.112 11.24C11.256 11.0853 11.328 10.8667 11.328 10.584V9.808C11.328 9.52533 11.256 9.30933 11.112 9.16C10.9733 9.00533 10.752 8.928 10.448 8.928H8.32V11.464H10.448ZM17.1714 14.792H13.0434V9.248C13.0434 8.55467 13.3901 8.208 14.0834 8.208H17.1714V8.928H14.2434C13.9768 8.928 13.8434 9.06133 13.8434 9.328V10.928H16.8514V11.648H13.8434V14.072H17.1714V14.792ZM22.2993 13.752C22.2993 14.4453 21.9526 14.792 21.2593 14.792H17.9713V14.072H21.0993C21.3659 14.072 21.4993 13.9387 21.4993 13.672V12.728C21.4993 12.6213 21.4806 12.5387 21.4433 12.48C21.4113 12.4213 21.3499 12.3707 21.2593 12.328L18.5793 11.016C18.4513 10.952 18.3419 10.8907 18.2513 10.832C18.1659 10.7733 18.0966 10.7067 18.0433 10.632C17.9899 10.552 17.9499 10.4613 17.9233 10.36C17.9019 10.2587 17.8913 10.1307 17.8913 9.976V9.248C17.8913 8.55467 18.2379 8.208 18.9313 8.208H22.0993V8.928H19.0913C18.8246 8.928 18.6913 9.06133 18.6913 9.328V9.96C18.6913 10.0667 18.7073 10.1493 18.7393 10.208C18.7766 10.2667 18.8406 10.3173 18.9313 10.36L21.6113 11.656C21.7446 11.72 21.8539 11.7813 21.9392 11.84C22.0299 11.8987 22.1019 11.968 22.1553 12.048C22.2086 12.1227 22.2459 12.2133 22.2673 12.32C22.2886 12.4213 22.2993 12.5467 22.2993 12.696V13.752ZM25.2883 14.792H24.4883V8.928H22.7763V8.208H27.0003V8.928H25.2883V14.792ZM32.4452 13.224C32.4452 13.7467 32.3092 14.144 32.0372 14.416C31.7652 14.688 31.3279 14.824 30.7252 14.824H29.2772C28.6745 14.824 28.2372 14.688 27.9652 14.416C27.6932 14.144 27.5572 13.7467 27.5572 13.224V9.776C27.5572 9.25333 27.6932 8.856 27.9652 8.584C28.2372 8.312 28.6745 8.176 29.2772 8.176H30.7252C31.3279 8.176 31.7652 8.312 32.0372 8.584C32.3092 8.856 32.4452 9.25333 32.4452 9.776V13.224ZM30.7652 14.104C31.0692 14.104 31.2905 14.0293 31.4292 13.88C31.5732 13.7253 31.6452 13.5067 31.6452 13.224V9.776C31.6452 9.49333 31.5732 9.27733 31.4292 9.128C31.2905 8.97333 31.0692 8.896 30.7652 8.896H29.2372C28.9332 8.896 28.7092 8.97333 28.5652 9.128C28.4265 9.27733 28.3572 9.49333 28.3572 9.776V13.224C28.3572 13.5067 28.4265 13.7253 28.5652 13.88C28.7092 14.0293 28.9332 14.104 29.2372 14.104H30.7652ZM38.2508 14.792H37.4108L36.1548 12.184H34.2028V14.792H33.4028V8.208H36.2908C36.8935 8.208 37.3308 8.344 37.6028 8.616C37.8748 8.888 38.0108 9.28533 38.0108 9.808V10.584C38.0108 11 37.9255 11.336 37.7548 11.592C37.5895 11.848 37.3228 12.0213 36.9548 12.112L38.2508 14.792ZM36.3308 11.464C36.6348 11.464 36.8561 11.3893 36.9948 11.24C37.1388 11.0853 37.2108 10.8667 37.2108 10.584V9.808C37.2108 9.52533 37.1388 9.30933 36.9948 9.16C36.8561 9.00533 36.6348 8.928 36.3308 8.928H34.2028V11.464H36.3308ZM43.0543 14.792H38.9263V9.248C38.9263 8.55467 39.2729 8.208 39.9663 8.208H43.0543V8.928H40.1263C39.8596 8.928 39.7263 9.06133 39.7263 9.328V10.928H42.7343V11.648H39.7263V14.072H43.0543V14.792Z" fill="white"/>
<rect x="0.5" y="0.5" width="49" height="24" stroke="black"/>
</svg>
