<svg width="80" height="52" viewBox="0 0 80 52" fill="none" xmlns="http://www.w3.org/2000/svg">
<path d="M32.0342 41.1277C32.0459 40.6355 31.999 40.155 31.8935 39.6863C31.7998 39.2175 31.6416 38.7956 31.4189 38.4206C31.1962 38.0456 30.8974 37.7467 30.5224 37.5241C30.1591 37.2897 29.7079 37.1725 29.1688 37.1725C28.6883 37.1725 28.2664 37.278 27.9031 37.4889C27.5516 37.6882 27.2586 37.9694 27.0242 38.3327C26.7898 38.696 26.614 39.1179 26.4968 39.5984C26.3796 40.0789 26.321 40.5887 26.321 41.1277C26.321 41.6551 26.3914 42.1649 26.532 42.6571C26.6843 43.1376 26.8836 43.5595 27.1297 43.9228C27.3875 44.2861 27.6863 44.579 28.0262 44.8017C28.3778 45.0127 28.7586 45.1181 29.1688 45.1181C29.7079 45.1181 30.1591 45.0068 30.5224 44.7841C30.8974 44.5497 31.1962 44.245 31.4189 43.87C31.6416 43.495 31.7998 43.0673 31.8935 42.5868C31.999 42.1063 32.0459 41.6199 32.0342 41.1277ZM25.1433 32.145C25.1433 31.9809 25.2253 31.8989 25.3894 31.8989H26.0749C26.239 31.8989 26.321 31.9809 26.321 32.145V37.7526C26.614 37.2721 27.0301 36.8912 27.5691 36.61C28.1082 36.317 28.7118 36.1705 29.3798 36.1705C31.9931 36.1705 33.2998 37.8229 33.2998 41.1277C33.3116 41.784 33.2412 42.4169 33.0889 43.0263C32.9483 43.6239 32.7139 44.1513 32.3857 44.6083C32.0576 45.0654 31.6416 45.4345 31.1376 45.7158C30.6454 45.9854 30.0595 46.1201 29.3798 46.1201C27.9735 46.1201 26.9539 45.5224 26.321 44.3271V45.6982C26.321 45.8623 26.239 45.9443 26.0749 45.9443H25.3894C25.2253 45.9443 25.1433 45.8623 25.1433 45.6982V32.145ZM41.3236 40.9871H40.9896C40.3333 40.9637 39.7474 40.993 39.2317 41.075C38.7278 41.1453 38.3059 41.2449 37.966 41.3738C37.4738 41.5496 37.1047 41.8133 36.8586 42.1649C36.6125 42.5047 36.4894 42.9149 36.4894 43.3954C36.4894 43.6884 36.5363 43.9638 36.6301 44.2216C36.7238 44.4677 36.8703 44.6611 37.0695 44.8017C37.4211 45.083 37.8899 45.2236 38.4758 45.2236C38.886 45.2236 39.261 45.1416 39.6009 44.9775C39.9525 44.8134 40.2572 44.579 40.515 44.2743C40.7728 43.9696 40.972 43.5946 41.1127 43.1493C41.2533 42.6923 41.3236 42.1707 41.3236 41.5848V40.9871ZM36.3136 37.9108C36.255 37.946 36.1964 37.9577 36.1379 37.946C36.091 37.9225 36.0675 37.8815 36.0675 37.8229V37.1549C36.0675 36.9909 36.1496 36.8678 36.3136 36.7858C36.7238 36.5631 37.1574 36.4108 37.6145 36.3287C38.0832 36.235 38.593 36.1881 39.1438 36.1881C40.3158 36.1881 41.1713 36.4694 41.7103 37.0319C42.2494 37.5827 42.519 38.4206 42.519 39.5456V43.9579C42.519 44.3095 42.5248 44.6259 42.5365 44.9072C42.5483 45.1767 42.5658 45.4404 42.5893 45.6982C42.5893 45.8623 42.5072 45.9443 42.3432 45.9443H41.7103C41.5463 45.9443 41.4642 45.8623 41.4642 45.6982V44.3447C41.2181 44.9423 40.8021 45.4053 40.2161 45.7334C39.6419 46.0615 39.0149 46.2256 38.3352 46.2256C37.1516 46.2256 36.2843 45.8799 35.7335 45.1884C35.546 44.9541 35.4054 44.6845 35.3116 44.3798C35.2179 44.0634 35.171 43.7528 35.171 43.4481C35.171 42.7333 35.3351 42.118 35.6632 41.6024C36.0031 41.0867 36.5187 40.7 37.2102 40.4422C38.0539 40.1375 39.3489 39.9851 41.0951 39.9851H41.3236V39.4578C41.3236 38.7194 41.1537 38.1569 40.8138 37.7702C40.4857 37.3835 39.929 37.1901 39.1438 37.1901C38.6165 37.1901 38.1184 37.2487 37.6496 37.3659C37.1809 37.4713 36.7355 37.653 36.3136 37.9108ZM53.0121 45.6982C53.0121 45.8623 52.9301 45.9443 52.766 45.9443H52.0629C51.8988 45.9443 51.8168 45.8623 51.8168 45.6982V40.1609C51.8168 39.0827 51.6234 38.321 51.2367 37.8757C50.85 37.4186 50.305 37.1901 49.6019 37.1901C48.6526 37.1901 47.926 37.4538 47.4221 37.9811C46.9299 38.5085 46.6838 39.2468 46.6838 40.1961V45.6982C46.6838 45.8623 46.6017 45.9443 46.4377 45.9443H45.7345C45.5704 45.9443 45.4884 45.8623 45.4884 45.6982V38.6667C45.4884 38.1628 45.4826 37.7702 45.4708 37.4889C45.4708 37.2077 45.4591 36.9381 45.4357 36.6803C45.424 36.5983 45.4415 36.5397 45.4884 36.5045C45.547 36.4576 45.6115 36.4342 45.6818 36.4342H46.3146C46.4787 36.4342 46.5607 36.5162 46.5607 36.6803V37.6471C46.8889 37.1432 47.2815 36.7741 47.7385 36.5397C48.2073 36.3053 48.846 36.1881 49.6546 36.1881C50.7679 36.1881 51.6058 36.5104 52.1684 37.1549C52.7309 37.7995 53.0121 38.7077 53.0121 39.8796V45.6982Z" fill="#2D3648"/>
<g clip-path="url(#clip0_330_1782)">
<path d="M28.5765 0.259264C28.154 -0.157133 27.5405 -0.0606507 27.2074 0.467463C26.8743 0.995576 26.9515 1.76236 27.374 2.17875L51.4235 25.7407C51.846 26.1571 52.4595 26.0607 52.7926 25.5325C53.1257 25.0044 53.0485 24.2376 52.626 23.8212L41.3528 12.7766C43.5709 12.0352 45.1999 9.50633 45.1999 6.50014C45.1999 2.90999 42.8721 0.000285435 40 0.000285435C37.1644 0.000285435 34.861 2.83382 34.8001 6.35796L28.5765 0.259264ZM37.7372 15.4527C33.9267 15.7117 30.9002 19.6624 30.9002 24.4915C30.9002 25.3243 31.4405 25.9997 32.1067 25.9997H47.8933C48.0517 25.9997 48.202 25.9642 48.3402 25.8931L37.7372 15.4527Z" fill="#2D3648"/>
</g>
<defs>
<clipPath id="clip0_330_1782">
<rect width="26" height="26" fill="white" transform="translate(27)"/>
</clipPath>
</defs>
</svg>
