<svg width="26" height="45" viewBox="0 0 26 45" fill="none" xmlns="http://www.w3.org/2000/svg">
<path d="M7.454 43.405C7.28 43.465 7.073 43.516 6.833 43.558C6.599 43.6 6.32 43.621 5.996 43.621C5.48 43.621 5.006 43.534 4.574 43.36C4.148 43.192 3.782 42.952 3.476 42.64C3.17 42.322 2.93 41.944 2.756 41.506C2.588 41.062 2.504 40.57 2.504 40.03C2.504 39.502 2.588 39.019 2.756 38.581C2.93 38.137 3.17 37.759 3.476 37.447C3.782 37.129 4.148 36.883 4.574 36.709C5.006 36.535 5.48 36.448 5.996 36.448C6.266 36.448 6.527 36.466 6.779 36.502C7.031 36.532 7.265 36.58 7.481 36.646C7.565 36.676 7.607 36.712 7.607 36.754C7.613 36.796 7.616 36.847 7.616 36.907L7.598 37.681C7.598 37.783 7.574 37.84 7.526 37.852C7.478 37.864 7.4 37.855 7.292 37.825C7.022 37.747 6.779 37.696 6.563 37.672C6.353 37.642 6.134 37.627 5.906 37.627C5.57 37.627 5.267 37.687 4.997 37.807C4.733 37.921 4.508 38.086 4.322 38.302C4.136 38.512 3.992 38.764 3.89 39.058C3.794 39.352 3.746 39.676 3.746 40.03C3.746 40.378 3.8 40.699 3.908 40.993C4.016 41.281 4.166 41.533 4.358 41.749C4.55 41.959 4.775 42.13 5.033 42.262C5.297 42.388 5.585 42.466 5.897 42.496C6.185 42.526 6.461 42.517 6.725 42.469C6.989 42.415 7.205 42.358 7.373 42.298C7.451 42.268 7.502 42.262 7.526 42.28C7.55 42.292 7.565 42.328 7.571 42.388L7.616 43.198C7.622 43.264 7.613 43.309 7.589 43.333C7.565 43.357 7.52 43.381 7.454 43.405ZM11.7639 43.495C11.6979 43.495 11.6499 43.483 11.6199 43.459C11.5959 43.435 11.5839 43.387 11.5839 43.315V40.453C11.5839 39.691 11.3589 39.31 10.9089 39.31C10.6569 39.31 10.4499 39.361 10.2879 39.463C10.1259 39.559 10.0089 39.694 9.93688 39.868V43.315C9.93688 43.387 9.92188 43.435 9.89188 43.459C9.86188 43.483 9.81688 43.495 9.75688 43.495H8.92888C8.86288 43.495 8.81788 43.483 8.79388 43.459C8.76988 43.435 8.75788 43.387 8.75788 43.315V36.25C8.75788 36.13 8.81488 36.07 8.92888 36.07H9.75688C9.87688 36.07 9.93688 36.13 9.93688 36.25V38.68C10.0929 38.548 10.2639 38.443 10.4499 38.365C10.6359 38.281 10.8129 38.239 10.9809 38.239C11.5869 38.239 12.0339 38.416 12.3219 38.77C12.6159 39.124 12.7629 39.682 12.7629 40.444V43.315C12.7629 43.387 12.7479 43.435 12.7179 43.459C12.6939 43.483 12.6519 43.495 12.5919 43.495H11.7639ZM16.8709 43.513C16.8169 43.513 16.7809 43.507 16.7629 43.495C16.7509 43.483 16.7449 43.447 16.7449 43.387V43C16.6429 43.162 16.4749 43.3 16.2409 43.414C16.0129 43.528 15.7849 43.585 15.5569 43.585C15.3109 43.585 15.0739 43.549 14.8459 43.477C14.6179 43.411 14.4289 43.303 14.2789 43.153C14.1349 43.009 14.0209 42.835 13.9369 42.631C13.8529 42.421 13.8109 42.184 13.8109 41.92C13.8109 41.608 13.8859 41.326 14.0359 41.074C14.1859 40.822 14.3839 40.627 14.6299 40.489C14.8819 40.345 15.1789 40.243 15.5209 40.183C15.8629 40.117 16.2409 40.096 16.6549 40.12C16.6189 39.646 16.4149 39.385 16.0429 39.337C15.9229 39.325 15.7999 39.328 15.6739 39.346C15.5539 39.364 15.4339 39.394 15.3139 39.436C15.1999 39.472 15.0889 39.517 14.9809 39.571C14.8729 39.619 14.7769 39.67 14.6929 39.724C14.5669 39.808 14.4769 39.85 14.4229 39.85C14.3689 39.85 14.3419 39.79 14.3419 39.67V38.923C14.3419 38.845 14.3479 38.791 14.3599 38.761C14.3779 38.725 14.4229 38.689 14.4949 38.653C14.6749 38.563 14.8849 38.479 15.1249 38.401C15.3709 38.323 15.6589 38.284 15.9889 38.284C16.6009 38.284 17.0569 38.44 17.3569 38.752C17.6629 39.064 17.8159 39.547 17.8159 40.201V42.253C17.8159 42.331 17.8159 42.418 17.8159 42.514C17.8159 42.604 17.8159 42.697 17.8159 42.793C17.8219 42.889 17.8249 42.979 17.8249 43.063C17.8309 43.153 17.8369 43.231 17.8429 43.297C17.8549 43.417 17.8489 43.483 17.8249 43.495C17.8009 43.507 17.7589 43.513 17.6989 43.513H16.8709ZM16.7449 41.029C16.4029 41.035 16.1209 41.062 15.8989 41.11C15.6769 41.152 15.4969 41.212 15.3589 41.29C15.2269 41.368 15.1369 41.461 15.0889 41.569C15.0409 41.677 15.0169 41.797 15.0169 41.929C15.0169 42.121 15.0739 42.271 15.1879 42.379C15.3019 42.481 15.4609 42.532 15.6649 42.532C15.9889 42.532 16.2469 42.415 16.4389 42.181C16.6369 41.941 16.7389 41.557 16.7449 41.029ZM21.5682 43.432C21.4482 43.486 21.3042 43.531 21.1362 43.567C20.9682 43.609 20.7762 43.627 20.5602 43.621C20.3382 43.615 20.1372 43.558 19.9572 43.45C19.7772 43.348 19.6452 43.222 19.5612 43.072C19.4772 42.898 19.4262 42.703 19.4082 42.487C19.3902 42.265 19.3812 41.98 19.3812 41.632V39.508H18.7422C18.6282 39.508 18.5712 39.448 18.5712 39.328V38.581C18.5712 38.461 18.6282 38.401 18.7422 38.401H19.3812V37.204C19.3812 37.084 19.4412 37.024 19.5612 37.024H20.3892C20.5032 37.024 20.5602 37.084 20.5602 37.204V38.401H21.3252C21.3972 38.401 21.4422 38.416 21.4602 38.446C21.4842 38.47 21.4962 38.515 21.4962 38.581V39.328C21.4962 39.394 21.4842 39.442 21.4602 39.472C21.4422 39.496 21.3972 39.508 21.3252 39.508H20.5602V41.524C20.5602 41.74 20.5602 41.917 20.5602 42.055C20.5602 42.187 20.5662 42.274 20.5782 42.316C20.6022 42.43 20.6532 42.502 20.7312 42.532C20.8092 42.562 20.8932 42.571 20.9832 42.559C21.0732 42.547 21.1602 42.526 21.2442 42.496C21.3282 42.466 21.3942 42.439 21.4422 42.415C21.4902 42.391 21.5262 42.391 21.5502 42.415C21.5742 42.433 21.5892 42.475 21.5952 42.541L21.6762 43.216C21.6822 43.27 21.6792 43.312 21.6672 43.342C21.6552 43.378 21.6222 43.408 21.5682 43.432Z" fill="#2D3648"/>
<path d="M25 12.3334C25.0046 14.0932 24.5934 15.8292 23.8 17.4C22.8592 19.2823 21.413 20.8656 19.6232 21.9724C17.8335 23.0792 15.771 23.6659 13.6666 23.6667C11.9068 23.6713 10.1708 23.2601 8.59999 22.4667L1 25L3.53333 17.4C2.73991 15.8292 2.32874 14.0932 2.33333 12.3334C2.33415 10.229 2.92081 8.16649 4.02762 6.37676C5.13443 4.58703 6.71766 3.14079 8.59999 2.20004C10.1708 1.40661 11.9068 0.99545 13.6666 1.00004H14.3333C17.1124 1.15336 19.7374 2.32638 21.7055 4.29451C23.6736 6.26264 24.8466 8.88756 25 11.6667V12.3334Z" stroke="#2D3648" stroke-width="2" stroke-linecap="round" stroke-linejoin="round"/>
</svg>
