<svg width="25" height="25" viewBox="0 0 25 25" fill="none" xmlns="http://www.w3.org/2000/svg">
<path d="M13.7778 2.9165H6C3.23858 2.9165 1 5.15508 1 7.9165V18.9998C1 21.7613 3.23858 23.9998 6 23.9998H17.0833C19.8448 23.9998 22.0833 21.7613 22.0833 18.9998V11.2221" stroke="white" stroke-width="1.5"/>
<path d="M20.166 1.63889L17.6105 4.19444M17.6105 4.19444L10.1397 11.6653C10.0115 11.7934 9.92057 11.954 9.87661 12.1298L9.10784 15.2049C8.91645 15.9705 9.64561 16.6457 10.3942 16.3962L12.2754 15.7691C12.4227 15.72 12.5565 15.6373 12.6663 15.5275L23.3605 4.83333V4.83333C23.7013 4.49251 23.6702 3.93111 23.2938 3.63002L20.8049 1.63889V1.63889C20.4641 1.29807 19.9027 1.32916 19.6016 1.70553L17.6105 4.19444ZM17.6105 4.19444L20.8049 6.75" stroke="white"/>
<path d="M20.166 1.63889L17.6105 4.19444M17.6105 4.19444L10.1397 11.6653C10.0115 11.7934 9.92057 11.954 9.87661 12.1298L9.10784 15.2049C8.91645 15.9705 9.64561 16.6457 10.3942 16.3962L12.2754 15.7691C12.4227 15.72 12.5565 15.6373 12.6663 15.5275L23.3605 4.83333V4.83333C23.7013 4.49251 23.6702 3.93111 23.2938 3.63002L20.8049 1.63889V1.63889C20.4641 1.29807 19.9027 1.32916 19.6016 1.70553L17.6105 4.19444ZM17.6105 4.19444L20.8049 6.75" stroke="white"/>
</svg>
