<svg width="79" height="51" viewBox="0 0 79 51" fill="none" xmlns="http://www.w3.org/2000/svg">
<path d="M29.2285 45.3955C28.8769 45.4541 28.5371 45.4951 28.2089 45.5186C27.8808 45.542 27.4882 45.5537 27.0311 45.5537C26.3045 45.5537 25.6541 45.4248 25.0799 45.167C24.5174 44.9092 24.0369 44.5576 23.6384 44.1123C23.2517 43.6669 22.9528 43.1396 22.7419 42.5302C22.531 41.9208 22.4255 41.2645 22.4255 40.5613C22.4255 39.8465 22.5368 39.1902 22.7595 38.5925C22.9821 37.9831 23.2986 37.4616 23.7087 37.028C24.1306 36.5827 24.6287 36.2369 25.2029 35.9908C25.7889 35.733 26.4452 35.6041 27.1718 35.6041C27.5585 35.6041 27.9101 35.6217 28.2265 35.6568C28.5429 35.6803 28.8828 35.733 29.2461 35.8151C29.4101 35.8619 29.4863 35.9733 29.4746 36.1491L29.4219 36.7116C29.3984 36.8522 29.3105 36.9049 29.1582 36.8698C28.8535 36.776 28.5605 36.7116 28.2792 36.6764C27.998 36.6295 27.6874 36.6061 27.3476 36.6061C26.7499 36.6061 26.2225 36.7057 25.7655 36.9049C25.3201 37.0924 24.9451 37.362 24.6404 37.7136C24.3357 38.0651 24.1072 38.487 23.9548 38.9792C23.8025 39.4597 23.7263 39.9871 23.7263 40.5613C23.7263 41.0887 23.8025 41.5926 23.9548 42.0731C24.1189 42.5536 24.3474 42.9814 24.6404 43.3564C24.9451 43.7197 25.3084 44.0126 25.7303 44.2353C26.1639 44.4463 26.6561 44.5517 27.2069 44.5517C27.6171 44.5517 27.957 44.5341 28.2265 44.499C28.496 44.4638 28.8007 44.3994 29.1406 44.3056C29.3164 44.2587 29.4101 44.2998 29.4219 44.4287L29.4746 45.0791C29.4863 45.2549 29.4043 45.3604 29.2285 45.3955ZM39.1671 45.0791C39.1671 45.2432 39.0851 45.3252 38.921 45.3252H38.2179C38.0538 45.3252 37.9718 45.2432 37.9718 45.0791V39.6648C37.9718 39.1023 37.919 38.6277 37.8135 38.2409C37.7198 37.8425 37.5792 37.5261 37.3917 37.2917C37.2041 37.0456 36.9756 36.8698 36.7061 36.7643C36.4365 36.6588 36.1377 36.6061 35.8096 36.6061C34.8486 36.6061 34.1103 36.8346 33.5946 37.2917C33.0907 37.7487 32.8387 38.3816 32.8387 39.1902V45.0791C32.8387 45.2432 32.7567 45.3252 32.5926 45.3252H31.8895C31.7254 45.3252 31.6434 45.2432 31.6434 45.0791V31.5786C31.6434 31.4145 31.7254 31.3325 31.8895 31.3325H32.5926C32.7567 31.3325 32.8387 31.4145 32.8387 31.5786V36.6764C33.1669 36.3014 33.5712 36.0319 34.0517 35.8678C34.5439 35.692 35.1533 35.6041 35.8799 35.6041C37.0166 35.6041 37.8487 35.9381 38.3761 36.6061C38.9034 37.2741 39.1671 38.2878 39.1671 39.6472V45.0791ZM47.7182 40.368H47.3842C46.728 40.3445 46.142 40.3738 45.6264 40.4559C45.1224 40.5262 44.7005 40.6258 44.3607 40.7547C43.8685 40.9305 43.4993 41.1942 43.2532 41.5457C43.0071 41.8856 42.8841 42.2958 42.8841 42.7763C42.8841 43.0692 42.9309 43.3446 43.0247 43.6025C43.1185 43.8486 43.2649 44.0419 43.4642 44.1826C43.8157 44.4638 44.2845 44.6045 44.8705 44.6045C45.2806 44.6045 45.6557 44.5224 45.9955 44.3584C46.3471 44.1943 46.6518 43.9599 46.9096 43.6552C47.1674 43.3505 47.3667 42.9755 47.5073 42.5302C47.6479 42.0731 47.7182 41.5516 47.7182 40.9656V40.368ZM42.7083 37.2917C42.6497 37.3268 42.5911 37.3386 42.5325 37.3268C42.4856 37.3034 42.4622 37.2624 42.4622 37.2038V36.5358C42.4622 36.3717 42.5442 36.2487 42.7083 36.1666C43.1185 35.944 43.5521 35.7916 44.0091 35.7096C44.4779 35.6158 44.9877 35.569 45.5385 35.569C46.7104 35.569 47.5659 35.8502 48.105 36.4127C48.6441 36.9635 48.9136 37.8015 48.9136 38.9265V43.3388C48.9136 43.6904 48.9195 44.0068 48.9312 44.288C48.9429 44.5576 48.9605 44.8213 48.9839 45.0791C48.9839 45.2432 48.9019 45.3252 48.7378 45.3252H48.105C47.9409 45.3252 47.8589 45.2432 47.8589 45.0791V43.7255C47.6128 44.3232 47.1967 44.7861 46.6108 45.1142C46.0365 45.4424 45.4096 45.6065 44.7298 45.6065C43.5462 45.6065 42.679 45.2607 42.1282 44.5693C41.9407 44.3349 41.8 44.0654 41.7063 43.7607C41.6125 43.4443 41.5657 43.1337 41.5657 42.829C41.5657 42.1141 41.7297 41.4989 42.0579 40.9832C42.3977 40.4676 42.9134 40.0808 43.6048 39.823C44.4486 39.5183 45.7436 39.366 47.4897 39.366H47.7182V38.8386C47.7182 38.1003 47.5483 37.5378 47.2085 37.151C46.8803 36.7643 46.3237 36.5709 45.5385 36.5709C45.0111 36.5709 44.513 36.6295 44.0443 36.7467C43.5755 36.8522 43.1302 37.0339 42.7083 37.2917ZM56.3129 45.3428C55.8207 45.5186 55.3344 45.6065 54.8539 45.6065C53.9046 45.6065 53.2776 45.2959 52.9729 44.6748C52.7737 44.2529 52.6741 43.5087 52.6741 42.4423V36.8346H51.0217C50.8576 36.8346 50.7756 36.7526 50.7756 36.5885V36.0612C50.7756 35.8971 50.8576 35.8151 51.0217 35.8151H52.6741V33.4419C52.6741 33.2661 52.7503 33.1782 52.9026 33.1782H53.6409C53.7933 33.1782 53.8695 33.2661 53.8695 33.4419V35.8151H55.8207C55.9848 35.8151 56.0668 35.8971 56.0668 36.0612V36.5885C56.0668 36.7526 55.9848 36.8346 55.8207 36.8346H53.8695V43.0399C53.8695 44.083 54.2914 44.6045 55.1351 44.6045C55.4633 44.6045 55.8324 44.5341 56.2426 44.3935C56.3012 44.3701 56.3539 44.3701 56.4008 44.3935C56.4594 44.417 56.4887 44.4638 56.4887 44.5341L56.5239 44.9912C56.5473 45.1553 56.477 45.2725 56.3129 45.3428Z" fill="#2D3648"/>
<g clip-path="url(#clip0_437_1784)">
<path d="M48.5858 11.789C48.5858 18.3012 43.6132 23.5779 37.4776 23.5779C35.8678 23.5779 34.3404 23.2152 32.9606 22.5634C32.4442 23.0565 31.6025 23.731 30.6044 24.2977C29.5631 24.8872 28.309 25.3916 27.0637 25.3916C26.7817 25.3916 26.53 25.1706 26.4215 24.8305C26.313 24.4905 26.3738 24.105 26.5691 23.8443L26.5821 23.8273C26.5951 23.8103 26.6124 23.7876 26.6385 23.748C26.6862 23.68 26.76 23.5723 26.8511 23.4249C27.029 23.1415 27.2677 22.7221 27.5106 22.2007C27.9446 21.2598 28.3568 20.0242 28.4392 18.6356C27.1375 16.7086 26.3695 14.3451 26.3695 11.789C26.3695 5.2767 31.3421 0 37.4776 0C43.6132 0 48.5858 5.2767 48.5858 11.789Z" fill="#2D3648"/>
</g>
<defs>
<clipPath id="clip0_437_1784">
<rect width="25.3916" height="25.3916" fill="white" transform="translate(26.3682)"/>
</clipPath>
</defs>
</svg>
