<svg width="28" height="46" viewBox="0 0 28 46" fill="none" xmlns="http://www.w3.org/2000/svg">
<path d="M1.926 38.708V40.382H4.005C4.077 40.382 4.122 40.397 4.14 40.427C4.164 40.451 4.176 40.496 4.176 40.562V41.336C4.176 41.402 4.164 41.45 4.14 41.48C4.122 41.504 4.077 41.516 4.005 41.516H1.926V44.288C1.926 44.372 1.914 44.426 1.89 44.45C1.866 44.48 1.818 44.495 1.746 44.495H0.891C0.819 44.495 0.768 44.483 0.738 44.459C0.714 44.435 0.702 44.378 0.702 44.288V37.799C0.702 37.703 0.714 37.64 0.738 37.61C0.762 37.58 0.816 37.565 0.9 37.565H4.122C4.188 37.565 4.233 37.58 4.257 37.61C4.281 37.634 4.293 37.679 4.293 37.745V38.528C4.293 38.594 4.281 38.642 4.257 38.672C4.239 38.696 4.194 38.708 4.122 38.708H1.926ZM7.62237 40.535C7.50837 40.487 7.40337 40.46 7.30737 40.454C7.21137 40.442 7.12737 40.448 7.05537 40.472C6.91137 40.52 6.79437 40.598 6.70437 40.706C6.62037 40.814 6.55437 40.94 6.50637 41.084C6.46437 41.228 6.43737 41.378 6.42537 41.534C6.41337 41.69 6.40737 41.84 6.40737 41.984V44.306C6.40737 44.378 6.39537 44.426 6.37137 44.45C6.35337 44.48 6.31137 44.495 6.24537 44.495H5.38137C5.31537 44.495 5.27337 44.483 5.25537 44.459C5.23737 44.435 5.22837 44.381 5.22837 44.297V40.733C5.22837 40.541 5.22537 40.34 5.21937 40.13C5.21337 39.92 5.21037 39.746 5.21037 39.608C5.21037 39.53 5.22237 39.479 5.24637 39.455C5.27037 39.431 5.31537 39.419 5.38137 39.419H6.24537C6.33537 39.419 6.38037 39.467 6.38037 39.563V39.905C6.45837 39.791 6.55737 39.68 6.67737 39.572C6.79737 39.464 6.92337 39.398 7.05537 39.374C7.18137 39.35 7.30437 39.344 7.42437 39.356C7.55037 39.362 7.64637 39.389 7.71237 39.437C7.74237 39.461 7.76037 39.485 7.76637 39.509C7.77837 39.527 7.78437 39.56 7.78437 39.608V40.391C7.78437 40.457 7.77237 40.505 7.74837 40.535C7.72437 40.565 7.68237 40.565 7.62237 40.535ZM8.9299 38.681C8.7319 38.681 8.5669 38.612 8.4349 38.474C8.3029 38.336 8.2369 38.168 8.2369 37.97C8.2369 37.772 8.2999 37.604 8.4259 37.466C8.5579 37.322 8.7259 37.25 8.9299 37.25C9.1339 37.25 9.3019 37.322 9.4339 37.466C9.5659 37.604 9.6319 37.772 9.6319 37.97C9.6319 38.168 9.5659 38.336 9.4339 38.474C9.3019 38.612 9.1339 38.681 8.9299 38.681ZM8.4709 44.495C8.4169 44.495 8.3779 44.483 8.3539 44.459C8.3359 44.435 8.3269 44.387 8.3269 44.315V39.626C8.3269 39.554 8.3359 39.506 8.3539 39.482C8.3719 39.458 8.4109 39.446 8.4709 39.446H9.3619C9.4219 39.446 9.4609 39.458 9.4789 39.482C9.5029 39.506 9.5149 39.554 9.5149 39.626V44.315C9.5149 44.387 9.5029 44.435 9.4789 44.459C9.4609 44.483 9.4219 44.495 9.3619 44.495H8.4709ZM14.5836 42.146C14.5776 42.218 14.5596 42.275 14.5296 42.317C14.5056 42.353 14.4576 42.371 14.3856 42.371H11.5686C11.6106 42.773 11.7366 43.07 11.9466 43.262C12.1626 43.454 12.4176 43.556 12.7116 43.568C12.9876 43.58 13.2276 43.553 13.4316 43.487C13.6416 43.421 13.8426 43.328 14.0346 43.208C14.1186 43.154 14.1756 43.139 14.2056 43.163C14.2356 43.187 14.2506 43.25 14.2506 43.352V44.027C14.2506 44.093 14.2416 44.138 14.2236 44.162C14.2116 44.186 14.1786 44.219 14.1246 44.261C13.9506 44.381 13.7286 44.471 13.4586 44.531C13.1946 44.591 12.9336 44.621 12.6756 44.621C11.9556 44.621 11.3856 44.39 10.9656 43.928C10.5516 43.466 10.3446 42.809 10.3446 41.957C10.3446 41.639 10.3866 41.321 10.4706 41.003C10.5546 40.685 10.6896 40.4 10.8756 40.148C11.0616 39.89 11.2896 39.683 11.5596 39.527C11.8296 39.365 12.1506 39.284 12.5226 39.284C12.9006 39.284 13.2186 39.353 13.4766 39.491C13.7406 39.629 13.9536 39.815 14.1156 40.049C14.2836 40.283 14.4036 40.556 14.4756 40.868C14.5476 41.174 14.5836 41.501 14.5836 41.849V42.146ZM12.5496 40.328C12.4236 40.328 12.3066 40.358 12.1986 40.418C12.0906 40.478 11.9946 40.556 11.9106 40.652C11.8326 40.748 11.7636 40.859 11.7036 40.985C11.6436 41.111 11.6046 41.243 11.5866 41.381H13.4136C13.4136 41.261 13.3926 41.138 13.3506 41.012C13.3146 40.886 13.2606 40.775 13.1886 40.679C13.1226 40.577 13.0356 40.493 12.9276 40.427C12.8196 40.361 12.6936 40.328 12.5496 40.328ZM16.7609 44.315C16.7609 44.387 16.7489 44.435 16.7249 44.459C16.7009 44.483 16.6559 44.495 16.5899 44.495H15.7529C15.6809 44.495 15.6329 44.48 15.6089 44.45C15.5849 44.42 15.5729 44.372 15.5729 44.306V40.787C15.5729 40.559 15.5729 40.328 15.5729 40.094C15.5789 39.86 15.5729 39.683 15.5549 39.563C15.5429 39.497 15.5489 39.455 15.5729 39.437C15.5969 39.419 15.6509 39.41 15.7349 39.41H16.5899C16.6559 39.41 16.6979 39.416 16.7159 39.428C16.7339 39.44 16.7429 39.473 16.7429 39.527V39.869C16.8689 39.737 17.0309 39.617 17.2289 39.509C17.4329 39.395 17.6399 39.338 17.8499 39.338C18.4499 39.338 18.8879 39.509 19.1639 39.851C19.4459 40.193 19.5869 40.691 19.5869 41.345V44.315C19.5869 44.387 19.5749 44.435 19.5509 44.459C19.5269 44.483 19.4819 44.495 19.4159 44.495H18.5789C18.4589 44.495 18.3989 44.432 18.3989 44.306V41.525C18.3989 40.799 18.1799 40.436 17.7419 40.436C17.4359 40.436 17.1959 40.535 17.0219 40.733C16.8479 40.931 16.7609 41.201 16.7609 41.543V44.315ZM24.0009 44.045C23.9529 44.111 23.8869 44.177 23.8029 44.243C23.7189 44.309 23.6259 44.366 23.5239 44.414C23.4279 44.462 23.3259 44.501 23.2179 44.531C23.1099 44.561 23.0019 44.576 22.8939 44.576C22.2339 44.576 21.7239 44.339 21.3639 43.865C21.0099 43.385 20.8329 42.728 20.8329 41.894C20.8329 41.486 20.8809 41.12 20.9769 40.796C21.0729 40.466 21.2079 40.187 21.3819 39.959C21.5619 39.731 21.7779 39.557 22.0299 39.437C22.2879 39.311 22.5789 39.248 22.9029 39.248C23.0949 39.248 23.2929 39.296 23.4969 39.392C23.7009 39.488 23.8659 39.605 23.9919 39.743V37.232C23.9919 37.148 24.0009 37.097 24.0189 37.079C24.0369 37.055 24.0819 37.043 24.1539 37.043H25.0089C25.0749 37.043 25.1199 37.055 25.1439 37.079C25.1679 37.097 25.1799 37.148 25.1799 37.232V44.315C25.1799 44.399 25.1649 44.45 25.1349 44.468C25.1109 44.492 25.0629 44.504 24.9909 44.504H24.1539C24.0939 44.504 24.0519 44.492 24.0279 44.468C24.0099 44.45 24.0009 44.408 24.0009 44.342V44.045ZM23.0289 40.328C22.7289 40.328 22.4889 40.454 22.3089 40.706C22.1289 40.958 22.0389 41.354 22.0389 41.894C22.0389 42.464 22.1319 42.872 22.3179 43.118C22.5039 43.364 22.7409 43.487 23.0289 43.487C23.1549 43.487 23.2749 43.457 23.3889 43.397C23.5089 43.331 23.6139 43.235 23.7039 43.109C23.7939 42.977 23.8659 42.812 23.9199 42.614C23.9799 42.41 24.0099 42.17 24.0099 41.894C24.0099 41.606 23.9829 41.363 23.9289 41.165C23.8809 40.967 23.8119 40.808 23.7219 40.688C23.6319 40.562 23.5269 40.472 23.4069 40.418C23.2869 40.358 23.1609 40.328 23.0289 40.328Z" fill="#6D77AF"/>
<path d="M19.8337 24.5V22.1667C19.8337 20.929 19.342 19.742 18.4668 18.8668C17.5917 17.9917 16.4047 17.5 15.167 17.5H5.83366C4.59598 17.5 3.409 17.9917 2.53383 18.8668C1.65866 19.742 1.16699 20.929 1.16699 22.1667V24.5" stroke="#6D77AF" stroke-width="2" stroke-linecap="round" stroke-linejoin="round"/>
<path d="M10.4997 12.8333C13.077 12.8333 15.1663 10.744 15.1663 8.16667C15.1663 5.58934 13.077 3.5 10.4997 3.5C7.92235 3.5 5.83301 5.58934 5.83301 8.16667C5.83301 10.744 7.92235 12.8333 10.4997 12.8333Z" stroke="#6D77AF" stroke-width="2" stroke-linecap="round" stroke-linejoin="round"/>
<path d="M26.833 24.4997V22.1664C26.8322 21.1324 26.4881 20.1279 25.8546 19.3107C25.2211 18.4935 24.3342 17.9099 23.333 17.6514" stroke="#6D77AF" stroke-width="2" stroke-linecap="round" stroke-linejoin="round"/>
<path d="M18.667 3.65137C19.6708 3.90839 20.5605 4.49219 21.1959 5.31073C21.8313 6.12927 22.1761 7.136 22.1761 8.1722C22.1761 9.2084 21.8313 10.2151 21.1959 11.0337C20.5605 11.8522 19.6708 12.436 18.667 12.693" stroke="#6D77AF" stroke-width="2" stroke-linecap="round" stroke-linejoin="round"/>
</svg>
