<svg width="28" height="44" viewBox="0 0 28 44" fill="none" xmlns="http://www.w3.org/2000/svg">
<path d="M8.147 41.5825C8.039 41.6365 7.901 41.6845 7.733 41.7265C7.565 41.7685 7.385 41.8015 7.193 41.8255C7.007 41.8555 6.815 41.8765 6.617 41.8885C6.425 41.9065 6.248 41.9155 6.086 41.9155C5.582 41.9155 5.114 41.8345 4.682 41.6725C4.256 41.5165 3.887 41.2885 3.575 40.9885C3.269 40.6825 3.026 40.3075 2.846 39.8635C2.672 39.4195 2.585 38.9125 2.585 38.3425C2.585 37.8265 2.666 37.3495 2.828 36.9115C2.996 36.4735 3.23 36.0955 3.53 35.7775C3.836 35.4595 4.205 35.2135 4.637 35.0395C5.069 34.8595 5.555 34.7695 6.095 34.7695C6.449 34.7695 6.776 34.7935 7.076 34.8415C7.376 34.8835 7.655 34.9435 7.913 35.0215C8.003 35.0515 8.054 35.0815 8.066 35.1115C8.084 35.1355 8.087 35.1745 8.075 35.2285L7.94 36.0295C7.928 36.1195 7.901 36.1675 7.859 36.1735C7.823 36.1735 7.76 36.1585 7.67 36.1285C7.4 36.0385 7.133 35.9755 6.869 35.9395C6.611 35.9035 6.35 35.8855 6.086 35.8855C5.756 35.8855 5.453 35.9455 5.177 36.0655C4.907 36.1855 4.673 36.3565 4.475 36.5785C4.277 36.7945 4.121 37.0525 4.007 37.3525C3.899 37.6525 3.845 37.9825 3.845 38.3425C3.845 38.7325 3.899 39.0805 4.007 39.3865C4.121 39.6925 4.277 39.9535 4.475 40.1695C4.679 40.3795 4.916 40.5415 5.186 40.6555C5.462 40.7635 5.762 40.8175 6.086 40.8175C6.308 40.8175 6.509 40.8115 6.689 40.7995C6.875 40.7815 7.016 40.7575 7.112 40.7275V39.0625H5.735C5.615 39.0625 5.555 39.0025 5.555 38.8825V38.1175C5.555 37.9975 5.618 37.9375 5.744 37.9375H8.048C8.186 37.9375 8.267 37.9555 8.291 37.9915C8.321 38.0275 8.336 38.1055 8.336 38.2255V41.2135C8.336 41.3275 8.321 41.4055 8.291 41.4475C8.261 41.4955 8.213 41.5405 8.147 41.5825ZM12.5379 41.8255C12.4839 41.8255 12.4479 41.8195 12.4299 41.8075C12.4179 41.7955 12.4119 41.7595 12.4119 41.6995V41.3125C12.3099 41.4745 12.1419 41.6125 11.9079 41.7265C11.6799 41.8405 11.4519 41.8975 11.2239 41.8975C10.9779 41.8975 10.7409 41.8615 10.5129 41.7895C10.2849 41.7235 10.0959 41.6155 9.94588 41.4655C9.80188 41.3215 9.68788 41.1475 9.60388 40.9435C9.51988 40.7335 9.47788 40.4965 9.47788 40.2325C9.47788 39.9205 9.55288 39.6385 9.70288 39.3865C9.85288 39.1345 10.0509 38.9395 10.2969 38.8015C10.5489 38.6575 10.8459 38.5555 11.1879 38.4955C11.5299 38.4295 11.9079 38.4085 12.3219 38.4325C12.2859 37.9585 12.0819 37.6975 11.7099 37.6495C11.5899 37.6375 11.4669 37.6405 11.3409 37.6585C11.2209 37.6765 11.1009 37.7065 10.9809 37.7485C10.8669 37.7845 10.7559 37.8295 10.6479 37.8835C10.5399 37.9315 10.4439 37.9825 10.3599 38.0365C10.2339 38.1205 10.1439 38.1625 10.0899 38.1625C10.0359 38.1625 10.0089 38.1025 10.0089 37.9825V37.2355C10.0089 37.1575 10.0149 37.1035 10.0269 37.0735C10.0449 37.0375 10.0899 37.0015 10.1619 36.9655C10.3419 36.8755 10.5519 36.7915 10.7919 36.7135C11.0379 36.6355 11.3259 36.5965 11.6559 36.5965C12.2679 36.5965 12.7239 36.7525 13.0239 37.0645C13.3299 37.3765 13.4829 37.8595 13.4829 38.5135V40.5655C13.4829 40.6435 13.4829 40.7305 13.4829 40.8265C13.4829 40.9165 13.4829 41.0095 13.4829 41.1055C13.4889 41.2015 13.4919 41.2915 13.4919 41.3755C13.4979 41.4655 13.5039 41.5435 13.5099 41.6095C13.5219 41.7295 13.5159 41.7955 13.4919 41.8075C13.4679 41.8195 13.4259 41.8255 13.3659 41.8255H12.5379ZM12.4119 39.3415C12.0699 39.3475 11.7879 39.3745 11.5659 39.4225C11.3439 39.4645 11.1639 39.5245 11.0259 39.6025C10.8939 39.6805 10.8039 39.7735 10.7559 39.8815C10.7079 39.9895 10.6839 40.1095 10.6839 40.2415C10.6839 40.4335 10.7409 40.5835 10.8549 40.6915C10.9689 40.7935 11.1279 40.8445 11.3319 40.8445C11.6559 40.8445 11.9139 40.7275 12.1059 40.4935C12.3039 40.2535 12.4059 39.8695 12.4119 39.3415ZM20.5292 41.8075C20.4632 41.8075 20.4152 41.7925 20.3852 41.7625C20.3552 41.7385 20.3402 41.6905 20.3402 41.6185V38.5945C20.3402 38.3545 20.2742 38.1625 20.1422 38.0185C20.0102 37.8685 19.8452 37.7935 19.6472 37.7935C19.4972 37.7935 19.3622 37.8295 19.2422 37.9015C19.1222 37.9675 19.0202 38.0605 18.9362 38.1805C18.8522 38.3005 18.7862 38.4385 18.7382 38.5945C18.6962 38.7505 18.6752 38.9125 18.6752 39.0805V41.6275C18.6752 41.7475 18.6182 41.8075 18.5042 41.8075H17.6582C17.5922 41.8075 17.5442 41.7925 17.5142 41.7625C17.4842 41.7385 17.4692 41.6905 17.4692 41.6185V38.5945C17.4692 38.3125 17.4122 38.1085 17.2982 37.9825C17.1902 37.8565 17.0312 37.7935 16.8212 37.7935C16.5332 37.7935 16.3052 37.8925 16.1372 38.0905C15.9692 38.2825 15.8852 38.5135 15.8852 38.7835V41.6275C15.8852 41.6995 15.8732 41.7475 15.8492 41.7715C15.8252 41.7955 15.7802 41.8075 15.7142 41.8075H14.8772C14.8052 41.8075 14.7572 41.7925 14.7332 41.7625C14.7092 41.7325 14.6972 41.6845 14.6972 41.6185V38.0995C14.6972 37.8715 14.6972 37.6465 14.6972 37.4245C14.6972 37.1965 14.6912 37.0225 14.6792 36.9025C14.6672 36.8365 14.6732 36.7915 14.6972 36.7675C14.7272 36.7375 14.7872 36.7225 14.8772 36.7225H15.7142C15.7802 36.7225 15.8222 36.7285 15.8402 36.7405C15.8582 36.7525 15.8672 36.7855 15.8672 36.8395V37.2085C15.9992 37.0705 16.1582 36.9505 16.3442 36.8485C16.5362 36.7405 16.7282 36.6865 16.9202 36.6865C17.2082 36.6865 17.4782 36.7615 17.7302 36.9115C17.9882 37.0615 18.1862 37.2625 18.3242 37.5145C18.4022 37.4005 18.4922 37.2925 18.5942 37.1905C18.6962 37.0885 18.8042 36.9985 18.9182 36.9205C19.0382 36.8425 19.1642 36.7795 19.2962 36.7315C19.4342 36.6835 19.5752 36.6595 19.7192 36.6595C19.9892 36.6595 20.2352 36.6985 20.4572 36.7765C20.6792 36.8545 20.8682 36.9685 21.0242 37.1185C21.1862 37.2685 21.3092 37.4545 21.3932 37.6765C21.4832 37.8925 21.5282 38.1415 21.5282 38.4235V41.6275C21.5282 41.6995 21.5132 41.7475 21.4832 41.7715C21.4592 41.7955 21.4142 41.8075 21.3482 41.8075H20.5292ZM26.858 39.4585C26.852 39.5305 26.834 39.5875 26.804 39.6295C26.78 39.6655 26.732 39.6835 26.66 39.6835H23.843C23.885 40.0855 24.011 40.3825 24.221 40.5745C24.437 40.7665 24.692 40.8685 24.986 40.8805C25.262 40.8925 25.502 40.8655 25.706 40.7995C25.916 40.7335 26.117 40.6405 26.309 40.5205C26.393 40.4665 26.45 40.4515 26.48 40.4755C26.51 40.4995 26.525 40.5625 26.525 40.6645V41.3395C26.525 41.4055 26.516 41.4505 26.498 41.4745C26.486 41.4985 26.453 41.5315 26.399 41.5735C26.225 41.6935 26.003 41.7835 25.733 41.8435C25.469 41.9035 25.208 41.9335 24.95 41.9335C24.23 41.9335 23.66 41.7025 23.24 41.2405C22.826 40.7785 22.619 40.1215 22.619 39.2695C22.619 38.9515 22.661 38.6335 22.745 38.3155C22.829 37.9975 22.964 37.7125 23.15 37.4605C23.336 37.2025 23.564 36.9955 23.834 36.8395C24.104 36.6775 24.425 36.5965 24.797 36.5965C25.175 36.5965 25.493 36.6655 25.751 36.8035C26.015 36.9415 26.228 37.1275 26.39 37.3615C26.558 37.5955 26.678 37.8685 26.75 38.1805C26.822 38.4865 26.858 38.8135 26.858 39.1615V39.4585ZM24.824 37.6405C24.698 37.6405 24.581 37.6705 24.473 37.7305C24.365 37.7905 24.269 37.8685 24.185 37.9645C24.107 38.0605 24.038 38.1715 23.978 38.2975C23.918 38.4235 23.879 38.5555 23.861 38.6935H25.688C25.688 38.5735 25.667 38.4505 25.625 38.3245C25.589 38.1985 25.535 38.0875 25.463 37.9915C25.397 37.8895 25.31 37.8055 25.202 37.7395C25.094 37.6735 24.968 37.6405 24.824 37.6405Z" fill="#2D3648"/>
<path d="M7.95515 19.543L6.38609 17.974C5.95447 17.5423 5.80214 16.9178 5.9951 16.3389C6.14743 15.887 6.35055 15.298 6.59429 14.6226H1.22191C0.785213 14.6226 0.378985 14.3891 0.160637 14.0082C-0.0577114 13.6274 -0.0526336 13.1603 0.170792 12.7845L2.83667 8.2907C3.49679 7.17868 4.69009 6.49826 5.97986 6.49826H10.1589C10.2808 6.29515 10.4027 6.10728 10.5245 5.92448C14.6833 -0.209428 20.8783 -0.412537 24.575 0.26788C25.164 0.374512 25.621 0.836586 25.7327 1.4256C26.4132 5.12727 26.205 11.317 20.076 15.4757C19.8983 15.5976 19.7053 15.7194 19.5022 15.8413V20.0203C19.5022 21.31 18.8218 22.5084 17.7097 23.1634L13.2158 25.8292C12.8401 26.0526 12.3729 26.0577 11.9921 25.8394C11.6112 25.621 11.3776 25.2199 11.3776 24.7781V19.3348C10.6617 19.5836 10.0371 19.7867 9.56483 19.939C8.99611 20.1218 8.37661 19.9644 7.95007 19.543H7.95515ZM19.5022 8.52936C20.6244 8.52936 21.5333 7.62044 21.5333 6.49826C21.5333 5.37608 20.6244 4.46717 19.5022 4.46717C18.38 4.46717 17.4711 5.37608 17.4711 6.49826C17.4711 7.62044 18.38 8.52936 19.5022 8.52936Z" fill="#2D3648"/>
</svg>
