<svg width="80" height="52" viewBox="0 0 80 52" fill="none" xmlns="http://www.w3.org/2000/svg">
<path d="M24.8576 40.984C24.8576 39.7 24.5936 38.71 24.0656 38.014C23.5376 37.318 22.8236 36.97 21.9236 36.97C20.9516 36.97 20.2196 37.294 19.7276 37.942C19.2356 38.59 18.9896 39.616 18.9896 41.02C18.9896 41.536 19.0616 42.01 19.2056 42.442C19.3496 42.874 19.5476 43.246 19.7996 43.558C20.0516 43.858 20.3516 44.098 20.6996 44.278C21.0476 44.446 21.4256 44.53 21.8336 44.53C22.2536 44.53 22.6496 44.446 23.0216 44.278C23.3936 44.098 23.7116 43.852 23.9756 43.54C24.2516 43.216 24.4676 42.838 24.6236 42.406C24.7796 41.974 24.8576 41.5 24.8576 40.984ZM18.6656 48.256C18.5216 48.22 18.4616 48.13 18.4856 47.986L18.5396 47.194C18.5396 47.038 18.6176 47.002 18.7736 47.086C19.2296 47.29 19.6676 47.434 20.0876 47.518C20.5076 47.614 20.9636 47.662 21.4556 47.662C22.5476 47.662 23.3636 47.326 23.9036 46.654C24.4556 45.994 24.7676 45.088 24.8396 43.936C24.5636 44.476 24.1556 44.884 23.6156 45.16C23.0756 45.436 22.4756 45.574 21.8156 45.574C21.2276 45.574 20.6816 45.466 20.1776 45.25C19.6736 45.034 19.2356 44.728 18.8636 44.332C18.4916 43.936 18.1976 43.456 17.9816 42.892C17.7656 42.328 17.6576 41.704 17.6576 41.02C17.6576 40.216 17.7296 39.502 17.8736 38.878C18.0296 38.242 18.2696 37.708 18.5936 37.276C18.9176 36.844 19.3376 36.514 19.8536 36.286C20.3696 36.058 20.9936 35.944 21.7256 35.944C22.3616 35.944 22.9196 36.052 23.3996 36.268C23.8916 36.472 24.3896 36.844 24.8936 37.384L24.8576 36.412C24.8576 36.244 24.9416 36.16 25.1096 36.16H25.7936C25.9616 36.16 26.0456 36.244 26.0456 36.412V43.612C26.0456 44.392 25.9436 45.094 25.7396 45.718C25.5476 46.354 25.2536 46.888 24.8576 47.32C24.4736 47.764 23.9936 48.1 23.4176 48.328C22.8416 48.568 22.1816 48.688 21.4376 48.688C20.8976 48.688 20.4236 48.652 20.0156 48.58C19.6076 48.52 19.1576 48.412 18.6656 48.256ZM34.6936 40.822H34.3516C33.6796 40.798 33.0796 40.828 32.5516 40.912C32.0356 40.984 31.6036 41.086 31.2556 41.218C30.7516 41.398 30.3736 41.668 30.1216 42.028C29.8696 42.376 29.7436 42.796 29.7436 43.288C29.7436 43.588 29.7916 43.87 29.8876 44.134C29.9836 44.386 30.1336 44.584 30.3376 44.728C30.6976 45.016 31.1776 45.16 31.7776 45.16C32.1976 45.16 32.5816 45.076 32.9296 44.908C33.2896 44.74 33.6016 44.5 33.8656 44.188C34.1296 43.876 34.3336 43.492 34.4776 43.036C34.6216 42.568 34.6936 42.034 34.6936 41.434V40.822ZM29.5636 37.672C29.5036 37.708 29.4436 37.72 29.3836 37.708C29.3356 37.684 29.3116 37.642 29.3116 37.582V36.898C29.3116 36.73 29.3956 36.604 29.5636 36.52C29.9836 36.292 30.4276 36.136 30.8956 36.052C31.3756 35.956 31.8976 35.908 32.4616 35.908C33.6616 35.908 34.5376 36.196 35.0896 36.772C35.6416 37.336 35.9176 38.194 35.9176 39.346V43.864C35.9176 44.224 35.9236 44.548 35.9356 44.836C35.9476 45.112 35.9656 45.382 35.9896 45.646C35.9896 45.814 35.9056 45.898 35.7376 45.898H35.0896C34.9216 45.898 34.8376 45.814 34.8376 45.646V44.26C34.5856 44.872 34.1596 45.346 33.5596 45.682C32.9716 46.018 32.3296 46.186 31.6336 46.186C30.4216 46.186 29.5336 45.832 28.9696 45.124C28.7776 44.884 28.6336 44.608 28.5376 44.296C28.4416 43.972 28.3936 43.654 28.3936 43.342C28.3936 42.61 28.5616 41.98 28.8976 41.452C29.2456 40.924 29.7736 40.528 30.4816 40.264C31.3456 39.952 32.6716 39.796 34.4596 39.796H34.6936V39.256C34.6936 38.5 34.5196 37.924 34.1716 37.528C33.8356 37.132 33.2656 36.934 32.4616 36.934C31.9216 36.934 31.4116 36.994 30.9316 37.114C30.4516 37.222 29.9956 37.408 29.5636 37.672ZM38.9762 38.446C38.9762 37.942 38.9702 37.546 38.9582 37.258C38.9462 36.958 38.9282 36.676 38.9042 36.412C38.9042 36.244 38.9882 36.16 39.1562 36.16H39.8222C39.9902 36.16 40.0742 36.244 40.0742 36.412V37.384C40.3502 36.94 40.7222 36.592 41.1902 36.34C41.6582 36.076 42.2342 35.944 42.9182 35.944C43.6382 35.944 44.2682 36.124 44.8082 36.484C45.3482 36.832 45.6782 37.348 45.7982 38.032C46.0502 37.348 46.4522 36.832 47.0042 36.484C47.5682 36.124 48.2162 35.944 48.9482 35.944C49.4162 35.944 49.8362 36.028 50.2082 36.196C50.5922 36.364 50.9162 36.598 51.1802 36.898C51.4562 37.186 51.6662 37.528 51.8102 37.924C51.9542 38.32 52.0262 38.74 52.0262 39.184V45.646C52.0262 45.814 51.9422 45.898 51.7742 45.898H51.0902C50.9222 45.898 50.8382 45.82 50.8382 45.664V39.436C50.8382 37.792 50.1482 36.97 48.7682 36.97C48.3482 36.97 47.9702 37.066 47.6342 37.258C47.3102 37.438 47.0282 37.69 46.7882 38.014C46.5602 38.338 46.3862 38.716 46.2662 39.148C46.1582 39.58 46.1102 40.036 46.1222 40.516V45.646C46.1222 45.814 46.0382 45.898 45.8702 45.898H45.1502C44.9822 45.898 44.8982 45.814 44.8982 45.646V39.436C44.8982 37.792 44.2022 36.97 42.8102 36.97C41.9942 36.97 41.3522 37.234 40.8842 37.762C40.4162 38.29 40.1822 38.986 40.1822 39.85V45.646C40.1822 45.814 40.0982 45.898 39.9302 45.898H39.2282C39.0602 45.898 38.9762 45.814 38.9762 45.646V38.446ZM61.3178 40.354C61.3178 39.862 61.2698 39.424 61.1738 39.04C61.0778 38.656 60.9278 38.308 60.7238 37.996C60.2798 37.288 59.6378 36.934 58.7978 36.934C57.9338 36.934 57.2318 37.294 56.6918 38.014C56.4758 38.338 56.2958 38.71 56.1518 39.13C56.0078 39.55 55.9298 39.958 55.9178 40.354H61.3178ZM55.9178 41.38C55.9058 41.98 55.9718 42.514 56.1158 42.982C56.2718 43.438 56.4938 43.822 56.7818 44.134C57.0698 44.446 57.4118 44.686 57.8078 44.854C58.2158 45.022 58.6658 45.106 59.1578 45.106C59.6378 45.106 60.0878 45.064 60.5078 44.98C60.9278 44.884 61.3178 44.734 61.6778 44.53C61.8338 44.458 61.9118 44.5 61.9118 44.656V45.466C61.9118 45.574 61.8458 45.658 61.7138 45.718C61.3178 45.874 60.9038 45.988 60.4718 46.06C60.0398 46.144 59.5718 46.186 59.0678 46.186C57.5918 46.186 56.4758 45.76 55.7198 44.908C54.9638 44.044 54.5858 42.748 54.5858 41.02C54.5858 39.496 54.9638 38.266 55.7198 37.33C56.5118 36.382 57.5138 35.908 58.7258 35.908C59.3978 35.908 59.9798 36.028 60.4718 36.268C60.9638 36.508 61.3838 36.868 61.7318 37.348C62.3438 38.2 62.6498 39.34 62.6498 40.768C62.6498 40.924 62.6438 41.044 62.6318 41.128C62.6318 41.212 62.6138 41.272 62.5778 41.308C62.5418 41.344 62.4758 41.368 62.3798 41.38C62.2958 41.38 62.1698 41.38 62.0018 41.38H55.9178Z" fill="#2D3648"/>
<path d="M34.9552 19.543L33.3861 17.974C32.9545 17.5423 32.8021 16.9178 32.9951 16.3389C33.1474 15.887 33.3505 15.298 33.5943 14.6226H28.2219C27.7852 14.6226 27.379 14.3891 27.1606 14.0082C26.9423 13.6274 26.9474 13.1603 27.1708 12.7845L29.8367 8.2907C30.4968 7.17868 31.6901 6.49826 32.9799 6.49826H37.1589C37.2808 6.29515 37.4027 6.10728 37.5245 5.92448C41.6833 -0.209428 47.8783 -0.412537 51.575 0.26788C52.164 0.374512 52.621 0.836586 52.7327 1.4256C53.4132 5.12727 53.205 11.317 47.076 15.4757C46.8983 15.5976 46.7053 15.7194 46.5022 15.8413V20.0203C46.5022 21.31 45.8218 22.5084 44.7097 23.1634L40.2158 25.8292C39.8401 26.0526 39.3729 26.0577 38.9921 25.8394C38.6112 25.621 38.3776 25.2199 38.3776 24.7781V19.3348C37.6617 19.5836 37.0371 19.7867 36.5648 19.939C35.9961 20.1218 35.3766 19.9644 34.9501 19.543H34.9552ZM46.5022 8.52936C47.6244 8.52936 48.5333 7.62044 48.5333 6.49826C48.5333 5.37608 47.6244 4.46717 46.5022 4.46717C45.38 4.46717 44.4711 5.37608 44.4711 6.49826C44.4711 7.62044 45.38 8.52936 46.5022 8.52936Z" fill="#2D3648"/>
</svg>
