<svg width="22" height="22" viewBox="0 0 22 22" fill="none" xmlns="http://www.w3.org/2000/svg">
<path d="M0.5 2.25C0.5 1.28203 1.17031 0.5 2 0.5H20C20.8297 0.5 21.5 1.28203 21.5 2.25C21.5 3.21797 20.8297 4 20 4H2C1.17031 4 0.5 3.21797 0.5 2.25ZM0.5 11C0.5 10.032 1.17031 9.25 2 9.25H20C20.8297 9.25 21.5 10.032 21.5 11C21.5 11.968 20.8297 12.75 20 12.75H2C1.17031 12.75 0.5 11.968 0.5 11ZM21.5 19.75C21.5 20.718 20.8297 21.5 20 21.5H2C1.17031 21.5 0.5 20.718 0.5 19.75C0.5 18.782 1.17031 18 2 18H20C20.8297 18 21.5 18.782 21.5 19.75Z" fill="white"/>
</svg>
