<svg width="80" height="52" viewBox="0 0 80 52" fill="none" xmlns="http://www.w3.org/2000/svg">
<path d="M28.9874 41.7373L32.8754 46.8853C32.9114 46.9453 32.9234 46.9993 32.9114 47.0473C32.8994 47.1073 32.8574 47.1373 32.7854 47.1373H32.0114C31.8914 47.1373 31.7834 47.1193 31.6874 47.0833C31.5914 47.0473 31.5134 46.9813 31.4534 46.8853L28.2134 42.6013L27.0074 43.9513V46.8853C27.0074 47.0533 26.9234 47.1373 26.7554 47.1373H26.0354C25.8674 47.1373 25.7834 47.0533 25.7834 46.8853V33.0613C25.7834 32.8933 25.8674 32.8093 26.0354 32.8093H26.7554C26.9234 32.8093 27.0074 32.8933 27.0074 33.0613V42.4393L31.1114 37.6513C31.2794 37.4833 31.4774 37.3993 31.7054 37.3993H32.5514C32.6234 37.3993 32.6714 37.4293 32.6954 37.4893C32.7194 37.5373 32.7014 37.5913 32.6414 37.6513L28.9874 41.7373ZM36.4129 46.8853C36.4129 47.0533 36.3289 47.1373 36.1609 47.1373H35.3689C35.2009 47.1373 35.1169 47.0533 35.1169 46.8853V37.6513C35.1169 37.4833 35.2009 37.3993 35.3689 37.3993H36.1609C36.3289 37.3993 36.4129 37.4833 36.4129 37.6513V46.8853ZM34.8829 33.9973C34.8829 33.7573 34.9669 33.5533 35.1349 33.3853C35.3029 33.2053 35.5069 33.1153 35.7469 33.1153C35.9869 33.1153 36.1909 33.2053 36.3589 33.3853C36.5389 33.5533 36.6289 33.7573 36.6289 33.9973C36.6289 34.2373 36.5389 34.4413 36.3589 34.6093C36.1909 34.7773 35.9869 34.8613 35.7469 34.8613C35.5069 34.8613 35.3029 34.7773 35.1349 34.6093C34.9669 34.4413 34.8829 34.2373 34.8829 33.9973ZM45.7403 47.2093C45.3803 47.2693 45.0323 47.3113 44.6963 47.3353C44.3603 47.3593 43.9583 47.3713 43.4903 47.3713C42.7463 47.3713 42.0803 47.2393 41.4923 46.9753C40.9163 46.7113 40.4243 46.3513 40.0163 45.8953C39.6203 45.4393 39.3143 44.8993 39.0983 44.2753C38.8823 43.6513 38.7743 42.9793 38.7743 42.2593C38.7743 41.5273 38.8883 40.8553 39.1163 40.2433C39.3443 39.6193 39.6683 39.0853 40.0883 38.6413C40.5203 38.1853 41.0303 37.8313 41.6183 37.5793C42.2183 37.3153 42.8903 37.1833 43.6343 37.1833C44.0303 37.1833 44.3903 37.2013 44.7143 37.2373C45.0383 37.2613 45.3863 37.3153 45.7583 37.3993C45.9263 37.4473 46.0043 37.5613 45.9923 37.7413L45.9383 38.3173C45.9143 38.4613 45.8243 38.5153 45.6683 38.4793C45.3563 38.3833 45.0563 38.3173 44.7683 38.2813C44.4803 38.2333 44.1623 38.2093 43.8143 38.2093C43.2023 38.2093 42.6623 38.3113 42.1943 38.5153C41.7383 38.7073 41.3543 38.9833 41.0423 39.3433C40.7303 39.7033 40.4963 40.1353 40.3403 40.6393C40.1843 41.1313 40.1063 41.6713 40.1063 42.2593C40.1063 42.7993 40.1843 43.3153 40.3403 43.8073C40.5083 44.2993 40.7423 44.7373 41.0423 45.1213C41.3543 45.4933 41.7263 45.7933 42.1583 46.0213C42.6023 46.2373 43.1063 46.3453 43.6703 46.3453C44.0903 46.3453 44.4383 46.3273 44.7143 46.2913C44.9903 46.2553 45.3023 46.1893 45.6503 46.0933C45.8303 46.0453 45.9263 46.0873 45.9383 46.2193L45.9923 46.8853C46.0043 47.0653 45.9203 47.1733 45.7403 47.2093ZM51.4171 41.7373L55.3051 46.8853C55.3411 46.9453 55.3531 46.9993 55.3411 47.0473C55.3291 47.1073 55.2871 47.1373 55.2151 47.1373H54.4411C54.3211 47.1373 54.2131 47.1193 54.1171 47.0833C54.0211 47.0473 53.9431 46.9813 53.8831 46.8853L50.6431 42.6013L49.4371 43.9513V46.8853C49.4371 47.0533 49.3531 47.1373 49.1851 47.1373H48.4651C48.2971 47.1373 48.2131 47.0533 48.2131 46.8853V33.0613C48.2131 32.8933 48.2971 32.8093 48.4651 32.8093H49.1851C49.3531 32.8093 49.4371 32.8933 49.4371 33.0613V42.4393L53.5411 37.6513C53.7091 37.4833 53.9071 37.3993 54.1351 37.3993H54.9811C55.0531 37.3993 55.1011 37.4293 55.1251 37.4893C55.1491 37.5373 55.1311 37.5913 55.0711 37.6513L51.4171 41.7373Z" fill="#2D3648"/>
<path d="M45.933 0L42.5503 5.4733L41.5251 1.36796L40.3957 5.4733C40.5273 5.5685 40.6588 5.67102 40.7904 5.76622C39.9187 5.84678 39.0251 6.19096 38.1424 6.84272C45.933 6.84272 50.4397 17.7908 44.6995 26C45.637 25.1505 46.3881 24.2058 46.9747 23.2099C46.9692 23.2319 46.9637 23.2465 46.9583 23.2685L49.9298 24.6306L48.4934 20.5296H52.1831L49.2116 17.7908L53 15.0519L49.1074 13.6825L52.7971 8.21215L47.8793 9.58157L50.4397 2.73445L45.4177 6.84272L45.933 0ZM33.5864 1.77512C33.4987 1.77512 33.4 1.82639 33.2574 1.93623L33.1478 2.01679H33.0217C30.9356 2.01679 28.7031 3.21046 27.0397 7.05509C26.8791 8.85658 27.2289 9.61818 27.6751 10.6068C28.0814 11.5149 28.5715 12.6133 28.5989 14.4002C29.8446 14.3709 31.4701 14.1365 33.1094 12.0788L31.9745 3.65716L35.9055 8.5783C36.1358 8.20482 36.377 7.93387 36.5579 7.7215C36.7388 7.50913 36.8595 7.35534 36.9417 7.13565C35.8945 6.22758 35.2969 4.61649 34.7432 3.4155C34.4362 2.7491 34.1401 2.20719 33.9099 1.97285C33.7892 1.85568 33.7125 1.78245 33.6193 1.77512H33.5864ZM33.4548 7.28943L34.1621 12.5328L33.9811 12.7744C32.9285 14.1805 31.832 14.9055 30.8303 15.2863L33.5316 20.5296L35.0722 24.6306C35.6259 24.9674 36.5908 24.8869 37.7257 24.5207L37.5283 21.8991L39.354 23.847C42.5942 22.2579 46.2675 19.0577 46.1359 16.4214C44.8036 12.6207 41.3716 8.81996 38.5097 12.6207C37.7312 13.829 37.2871 15.1764 36.8375 17.5564C36.9307 15.1545 36.9417 13.7997 37.4954 12.584L36.5634 9.56692C36.5141 9.6548 36.4702 9.75732 36.4263 9.87449L36.1358 10.6507L33.4548 7.28943Z" fill="#2D3648"/>
</svg>
