<svg width="216" height="71" viewBox="0 0 216 71" fill="none" xmlns="http://www.w3.org/2000/svg">
<rect width="216" height="71" rx="20" fill="#313C7A"/>
<path d="M93.9486 39.488C93.7806 39.488 93.6966 39.4 93.6966 39.224V30.464C93.6966 30.376 93.7126 30.32 93.7446 30.296C93.7766 30.264 93.8366 30.248 93.9246 30.248H95.1246C95.2126 30.248 95.2686 30.264 95.2926 30.296C95.3166 30.32 95.3286 30.376 95.3286 30.464V37.976H98.2206C98.3086 37.976 98.3686 37.996 98.4006 38.036C98.4326 38.068 98.4486 38.128 98.4486 38.216V39.248C98.4486 39.336 98.4326 39.4 98.4006 39.44C98.3686 39.472 98.3086 39.488 98.2206 39.488H93.9486ZM104.645 38.552C104.349 38.928 103.993 39.212 103.577 39.404C103.169 39.588 102.713 39.68 102.209 39.68C101.681 39.68 101.217 39.584 100.817 39.392C100.425 39.2 100.093 38.944 99.8211 38.624C99.5571 38.296 99.3571 37.916 99.2211 37.484C99.0851 37.052 99.0171 36.596 99.0171 36.116C99.0171 35.636 99.0811 35.18 99.2091 34.748C99.3451 34.316 99.5451 33.94 99.8091 33.62C100.081 33.292 100.417 33.036 100.817 32.852C101.217 32.66 101.681 32.564 102.209 32.564C102.737 32.564 103.201 32.66 103.601 32.852C104.001 33.044 104.333 33.304 104.597 33.632C104.869 33.952 105.073 34.328 105.209 34.76C105.345 35.184 105.413 35.636 105.413 36.116C105.413 36.588 105.345 37.036 105.209 37.46C105.081 37.876 104.893 38.24 104.645 38.552ZM102.209 33.968C101.945 33.968 101.713 34.032 101.513 34.16C101.313 34.28 101.145 34.44 101.009 34.64C100.881 34.84 100.781 35.068 100.709 35.324C100.645 35.58 100.613 35.844 100.613 36.116C100.613 36.388 100.645 36.652 100.709 36.908C100.781 37.164 100.881 37.396 101.009 37.604C101.145 37.804 101.313 37.968 101.513 38.096C101.713 38.216 101.945 38.276 102.209 38.276C102.481 38.276 102.717 38.216 102.917 38.096C103.117 37.968 103.281 37.804 103.409 37.604C103.545 37.396 103.645 37.164 103.709 36.908C103.773 36.652 103.805 36.388 103.805 36.116C103.805 35.852 103.773 35.592 103.709 35.336C103.645 35.08 103.545 34.852 103.409 34.652C103.281 34.444 103.117 34.28 102.917 34.16C102.717 34.032 102.481 33.968 102.209 33.968ZM109.126 41.504C108.806 41.504 108.478 41.468 108.142 41.396C107.814 41.332 107.498 41.244 107.194 41.132C107.114 41.1 107.062 41.064 107.038 41.024C107.022 40.992 107.018 40.932 107.026 40.844L107.098 39.8C107.106 39.704 107.126 39.64 107.158 39.608C107.19 39.576 107.274 39.592 107.41 39.656C107.65 39.776 107.926 39.876 108.238 39.956C108.55 40.036 108.87 40.068 109.198 40.052C109.646 40.036 110.014 39.892 110.302 39.62C110.59 39.348 110.754 38.96 110.794 38.456C110.586 38.696 110.33 38.872 110.026 38.984C109.722 39.096 109.442 39.148 109.186 39.14C108.77 39.132 108.394 39.048 108.058 38.888C107.722 38.728 107.434 38.508 107.194 38.228C106.962 37.94 106.782 37.604 106.654 37.22C106.526 36.836 106.462 36.416 106.462 35.96C106.462 34.912 106.698 34.092 107.17 33.5C107.65 32.9 108.326 32.6 109.198 32.6C109.35 32.6 109.506 32.62 109.666 32.66C109.826 32.7 109.978 32.752 110.122 32.816C110.266 32.88 110.398 32.956 110.518 33.044C110.638 33.124 110.73 33.208 110.794 33.296V32.84C110.794 32.704 110.858 32.636 110.986 32.636H112.09C112.178 32.636 112.234 32.656 112.258 32.696C112.29 32.728 112.306 32.796 112.306 32.9V37.796C112.306 38.988 112.022 39.904 111.454 40.544C110.894 41.184 110.118 41.504 109.126 41.504ZM109.438 34.052C109.038 34.052 108.714 34.192 108.466 34.472C108.218 34.752 108.094 35.24 108.094 35.936C108.094 36.208 108.13 36.456 108.202 36.68C108.282 36.896 108.382 37.08 108.502 37.232C108.622 37.384 108.758 37.5 108.91 37.58C109.07 37.66 109.23 37.7 109.39 37.7C109.774 37.7 110.094 37.544 110.35 37.232C110.606 36.912 110.734 36.476 110.734 35.924C110.734 35.34 110.606 34.884 110.35 34.556C110.102 34.22 109.798 34.052 109.438 34.052ZM113.992 40.16C113.92 40.16 113.868 40.144 113.836 40.112C113.812 40.08 113.8 40.016 113.8 39.92V33.668C113.8 33.572 113.812 33.508 113.836 33.476C113.86 33.444 113.912 33.428 113.992 33.428H115.18C115.26 33.428 115.312 33.444 115.336 33.476C115.368 33.508 115.384 33.572 115.384 33.668V39.92C115.384 40.016 115.368 40.08 115.336 40.112C115.312 40.144 115.26 40.16 115.18 40.16H113.992ZM114.604 32.408C114.34 32.408 114.12 32.316 113.944 32.132C113.768 31.948 113.68 31.724 113.68 31.46C113.68 31.196 113.764 30.972 113.932 30.788C114.108 30.596 114.332 30.5 114.604 30.5C114.876 30.5 115.1 30.596 115.276 30.788C115.452 30.972 115.54 31.196 115.54 31.46C115.54 31.724 115.452 31.948 115.276 32.132C115.1 32.316 114.876 32.408 114.604 32.408ZM118.506 39.248C118.506 39.344 118.49 39.408 118.458 39.44C118.426 39.472 118.366 39.488 118.278 39.488H117.162C117.066 39.488 117.002 39.468 116.97 39.428C116.938 39.388 116.922 39.324 116.922 39.236V34.544C116.922 34.24 116.922 33.932 116.922 33.62C116.93 33.308 116.922 33.072 116.898 32.912C116.882 32.824 116.89 32.768 116.922 32.744C116.954 32.72 117.026 32.708 117.138 32.708H118.278C118.366 32.708 118.422 32.716 118.446 32.732C118.47 32.748 118.482 32.792 118.482 32.864V33.32C118.65 33.144 118.866 32.984 119.13 32.84C119.402 32.688 119.678 32.612 119.958 32.612C120.758 32.612 121.342 32.84 121.71 33.296C122.086 33.752 122.274 34.416 122.274 35.288V39.248C122.274 39.344 122.258 39.408 122.226 39.44C122.194 39.472 122.134 39.488 122.046 39.488H120.93C120.77 39.488 120.69 39.404 120.69 39.236V35.528C120.69 34.56 120.398 34.076 119.814 34.076C119.406 34.076 119.086 34.208 118.854 34.472C118.622 34.736 118.506 35.096 118.506 35.552V39.248Z" fill="white"/>
</svg>
