<svg width="157" height="199" viewBox="0 0 157 199" fill="none" xmlns="http://www.w3.org/2000/svg">
<path d="M7.74902 117.523L73.5033 77.3825L139.258 117.523L73.5033 158.439L7.74902 117.523Z" fill="#6D77AF"/>
<path d="M7.74902 91.1719L73.5033 51.0309L139.258 91.1719L73.5033 132.088L7.74902 91.1719Z" fill="#E1E3EE"/>
<path d="M7.74902 65.7539L73.5033 25.6129L139.258 65.7539L73.5033 106.67L7.74902 65.7539Z" fill="#313C7A"/>
<path d="M26.4403 194.142H23.3407V172.971L16.0254 192.995C15.9427 193.222 15.8601 193.408 15.7774 193.553C15.6948 193.698 15.5914 193.811 15.4674 193.894C15.3435 193.977 15.1781 194.039 14.9715 194.08C14.7855 194.121 14.5375 194.142 14.2276 194.142C13.6076 194.142 13.184 194.059 12.9567 193.894C12.7501 193.729 12.5744 193.429 12.4298 192.995L5.11449 172.971V194.142H2.0148V169.561C2.0148 168.941 2.32477 168.631 2.9447 168.631H4.89751C5.37279 168.631 5.73442 168.745 5.9824 168.972C6.23037 169.179 6.48868 169.53 6.75732 170.026L14.2276 190.329L21.6978 170.026C21.9665 169.53 22.2248 169.179 22.4727 168.972C22.7207 168.745 23.0823 168.631 23.5576 168.631H25.5104C26.1304 168.631 26.4403 168.941 26.4403 169.561V194.142ZM45.3785 190.112C45.3785 191.435 45.0272 192.437 44.3246 193.119C43.6426 193.801 42.4441 194.142 40.7289 194.142H34.3436C32.6284 194.142 31.4195 193.801 30.7169 193.119C30.035 192.437 29.694 191.435 29.694 190.112V187.075C29.694 185.752 30.035 184.75 30.7169 184.068C31.4195 183.386 32.6284 183.045 34.3436 183.045H42.2788V180.937C42.2788 179.904 41.7622 179.387 40.7289 179.387H30.8719V176.66H40.7289C42.4441 176.66 43.6426 177.001 44.3246 177.683C45.0272 178.365 45.3785 179.367 45.3785 180.689V190.112ZM40.7289 191.414C41.7622 191.414 42.2788 190.898 42.2788 189.864V185.773H34.3436C33.3103 185.773 32.7937 186.289 32.7937 187.323V189.864C32.7937 190.898 33.3103 191.414 34.3436 191.414H40.7289ZM59.5038 194.142H57.551C55.2159 194.142 53.5214 193.615 52.4676 192.561C51.4137 191.507 50.8867 189.968 50.8867 187.943V179.449H47.5391V176.66H50.8867V171.731H53.9864V176.66H59.5038V179.449H53.9864V187.943C53.9864 189.038 54.255 189.885 54.7923 190.484C55.3503 191.063 56.2182 191.352 57.3961 191.352H59.5038V194.142ZM75.3675 194.142H67.0913C65.2315 194.142 63.8573 193.677 62.9687 192.747C62.1008 191.817 61.6668 190.577 61.6668 189.027V181.774C61.6668 180.224 62.1008 178.984 62.9687 178.055C63.8573 177.125 65.2315 176.66 67.0913 176.66H75.3675V179.387H67.0913C65.5415 179.387 64.7665 180.266 64.7665 182.022V188.779C64.7665 190.536 65.5415 191.414 67.0913 191.414H75.3675V194.142ZM93.8486 194.142H90.7489V182.022C90.7489 180.266 89.974 179.387 88.4242 179.387H81.5739V194.142H78.4742V168.631H81.5739V176.66H88.4242C90.284 176.66 91.6479 177.125 92.5158 178.055C93.4043 178.984 93.8486 180.224 93.8486 181.774V194.142ZM109.392 179.511C110.322 179.511 111.014 179.284 111.469 178.829C111.944 178.375 112.182 177.776 112.182 177.032V174.521C112.182 172.454 111.148 171.421 109.082 171.421H100.527V179.511H109.392ZM115.684 187.323C115.684 189.802 115.116 191.559 113.979 192.592C112.843 193.625 111.035 194.142 108.555 194.142H97.4271V168.631H108.772C111.086 168.631 112.75 169.138 113.762 170.15C114.775 171.163 115.281 172.826 115.281 175.141V176.846C115.281 177.941 115.064 178.829 114.63 179.511C114.196 180.193 113.545 180.648 112.678 180.875C113.731 181.123 114.496 181.619 114.971 182.363C115.447 183.086 115.684 184.037 115.684 185.215V187.323ZM108.865 191.352C110.043 191.352 110.952 191.084 111.593 190.546C112.254 189.988 112.585 189.12 112.585 187.943V185.556C112.585 184.378 112.326 183.52 111.81 182.983C111.293 182.446 110.528 182.177 109.516 182.177H100.527V191.352H108.865ZM133.904 189.151C133.904 190.701 133.459 191.941 132.571 192.871C131.703 193.801 130.339 194.266 128.479 194.266H123.024C121.164 194.266 119.79 193.801 118.901 192.871C118.033 191.941 117.599 190.701 117.599 189.151V181.65C117.599 180.1 118.033 178.86 118.901 177.931C119.79 177.001 121.164 176.536 123.024 176.536H128.479C130.339 176.536 131.703 177.001 132.571 177.931C133.459 178.86 133.904 180.1 133.904 181.65V189.151ZM128.479 191.538C130.029 191.538 130.804 190.66 130.804 188.903V181.898C130.804 180.142 130.029 179.263 128.479 179.263H123.024C121.474 179.263 120.699 180.142 120.699 181.898V188.903C120.699 190.66 121.474 191.538 123.024 191.538H128.479ZM153.166 194.142H149.819L144.332 187.137L138.939 194.142H135.622L142.287 185.153L135.777 176.66H139.187L144.332 183.169L149.664 176.66H153.012L146.378 185.153L153.166 194.142Z" fill="#313C7A"/>
</svg>
