<svg width="80" height="52" viewBox="0 0 80 52" fill="none" xmlns="http://www.w3.org/2000/svg">
<path d="M19.8863 38.7683C19.8863 38.2643 19.8803 37.8683 19.8683 37.5803C19.8563 37.2803 19.8383 36.9983 19.8143 36.7343C19.8143 36.5663 19.8983 36.4823 20.0663 36.4823H20.7323C20.9003 36.4823 20.9843 36.5663 20.9843 36.7343V37.7063C21.2603 37.2623 21.6323 36.9143 22.1003 36.6623C22.5683 36.3983 23.1443 36.2663 23.8283 36.2663C24.5483 36.2663 25.1783 36.4463 25.7183 36.8063C26.2583 37.1543 26.5883 37.6703 26.7083 38.3543C26.9603 37.6703 27.3623 37.1543 27.9143 36.8063C28.4783 36.4463 29.1263 36.2663 29.8583 36.2663C30.3263 36.2663 30.7463 36.3503 31.1183 36.5183C31.5023 36.6863 31.8263 36.9203 32.0903 37.2203C32.3663 37.5083 32.5763 37.8503 32.7203 38.2463C32.8643 38.6423 32.9363 39.0623 32.9363 39.5063V45.9683C32.9363 46.1363 32.8523 46.2203 32.6843 46.2203H32.0003C31.8323 46.2203 31.7483 46.1423 31.7483 45.9863V39.7583C31.7483 38.1143 31.0583 37.2923 29.6783 37.2923C29.2583 37.2923 28.8803 37.3883 28.5443 37.5803C28.2203 37.7603 27.9383 38.0123 27.6983 38.3363C27.4703 38.6603 27.2963 39.0383 27.1763 39.4703C27.0683 39.9023 27.0203 40.3583 27.0323 40.8383V45.9683C27.0323 46.1363 26.9483 46.2203 26.7803 46.2203H26.0603C25.8923 46.2203 25.8083 46.1363 25.8083 45.9683V39.7583C25.8083 38.1143 25.1123 37.2923 23.7203 37.2923C22.9043 37.2923 22.2623 37.5563 21.7943 38.0843C21.3263 38.6123 21.0923 39.3083 21.0923 40.1723V45.9683C21.0923 46.1363 21.0083 46.2203 20.8403 46.2203H20.1383C19.9703 46.2203 19.8863 46.1363 19.8863 45.9683V38.7683ZM43.956 45.9683C43.956 46.1363 43.872 46.2203 43.704 46.2203H43.056C42.888 46.2203 42.804 46.1363 42.804 45.9683V44.4743C42.492 45.1943 42.072 45.7163 41.544 46.0403C41.028 46.3523 40.374 46.5083 39.582 46.5083C37.338 46.5083 36.216 45.2543 36.216 42.7463V36.7343C36.216 36.5663 36.3 36.4823 36.468 36.4823H37.188C37.356 36.4823 37.44 36.5663 37.44 36.7343V42.4223C37.44 44.4623 38.22 45.4823 39.78 45.4823C40.236 45.4823 40.644 45.3863 41.004 45.1943C41.376 44.9903 41.688 44.7203 41.94 44.3843C42.192 44.0363 42.384 43.6343 42.516 43.1783C42.648 42.7223 42.708 42.2423 42.696 41.7383V36.7343C42.696 36.5663 42.78 36.4823 42.948 36.4823H43.668C43.836 36.4823 43.92 36.5663 43.92 36.7343V43.9703C43.92 44.3663 43.92 44.7203 43.92 45.0323C43.932 45.3443 43.944 45.6563 43.956 45.9683ZM51.668 46.2383C51.164 46.4183 50.666 46.5083 50.174 46.5083C49.202 46.5083 48.56 46.1903 48.248 45.5543C48.044 45.1223 47.942 44.3603 47.942 43.2683V37.5263H46.25C46.082 37.5263 45.998 37.4423 45.998 37.2743V36.7343C45.998 36.5663 46.082 36.4823 46.25 36.4823H47.942V34.0523C47.942 33.8723 48.02 33.7823 48.176 33.7823H48.932C49.088 33.7823 49.166 33.8723 49.166 34.0523V36.4823H51.164C51.332 36.4823 51.416 36.5663 51.416 36.7343V37.2743C51.416 37.4423 51.332 37.5263 51.164 37.5263H49.166V43.8803C49.166 44.9483 49.598 45.4823 50.462 45.4823C50.798 45.4823 51.176 45.4103 51.596 45.2663C51.656 45.2423 51.71 45.2423 51.758 45.2663C51.818 45.2903 51.848 45.3383 51.848 45.4103L51.884 45.8783C51.908 46.0463 51.836 46.1663 51.668 46.2383ZM59.6831 40.6763C59.6831 40.1843 59.6351 39.7463 59.5391 39.3623C59.4431 38.9783 59.2931 38.6303 59.0891 38.3183C58.6451 37.6103 58.0031 37.2563 57.1631 37.2563C56.2991 37.2563 55.5971 37.6163 55.0571 38.3363C54.8411 38.6603 54.6611 39.0323 54.5171 39.4523C54.3731 39.8723 54.2951 40.2803 54.2831 40.6763H59.6831ZM54.2831 41.7023C54.2711 42.3023 54.3371 42.8363 54.4811 43.3043C54.6371 43.7603 54.8591 44.1443 55.1471 44.4563C55.4351 44.7683 55.7771 45.0083 56.1731 45.1763C56.5811 45.3443 57.0311 45.4283 57.5231 45.4283C58.0031 45.4283 58.4531 45.3863 58.8731 45.3023C59.2931 45.2063 59.6831 45.0563 60.0431 44.8523C60.1991 44.7803 60.2771 44.8223 60.2771 44.9783V45.7883C60.2771 45.8963 60.2111 45.9803 60.0791 46.0403C59.6831 46.1963 59.2691 46.3103 58.8371 46.3823C58.4051 46.4663 57.9371 46.5083 57.4331 46.5083C55.9571 46.5083 54.8411 46.0823 54.0851 45.2303C53.3291 44.3663 52.9511 43.0703 52.9511 41.3423C52.9511 39.8183 53.3291 38.5883 54.0851 37.6523C54.8771 36.7043 55.8791 36.2303 57.0911 36.2303C57.7631 36.2303 58.3451 36.3503 58.8371 36.5903C59.3291 36.8303 59.7491 37.1903 60.0971 37.6703C60.7091 38.5223 61.0151 39.6623 61.0151 41.0903C61.0151 41.2463 61.0091 41.3663 60.9971 41.4503C60.9971 41.5343 60.9791 41.5943 60.9431 41.6303C60.9071 41.6663 60.8411 41.6903 60.7451 41.7023C60.6611 41.7023 60.5351 41.7023 60.3671 41.7023H54.2831Z" fill="#2D3648"/>
<path d="M27.967 0.00415533C27.7517 0.0431319 27.5515 0.141394 27.389 0.287902C27.2264 0.434409 27.1079 0.623356 27.0468 0.833513C26.9857 1.04367 26.9844 1.26671 27.043 1.47757C27.1017 1.68843 27.2179 1.87876 27.3787 2.02717L50.9096 25.5643C51.0134 25.6924 51.1429 25.7972 51.2899 25.872C51.4368 25.9468 51.5978 25.9899 51.7624 25.9984C51.9271 26.007 52.0917 25.9808 52.2455 25.9217C52.3994 25.8625 52.5392 25.7717 52.6557 25.655C52.7722 25.5384 52.8629 25.3985 52.922 25.2446C52.981 25.0906 53.007 24.9259 52.9984 24.7613C52.9897 24.5966 52.9465 24.4356 52.8717 24.2887C52.7968 24.1418 52.6919 24.0122 52.5638 23.9085L43.8503 15.1938V1.54819C43.8503 0.0594676 42.5502 -0.313596 41.5337 0.703208L35.3933 6.7346L29.0341 0.371335C28.9127 0.241951 28.7636 0.141715 28.5979 0.0781297C28.4323 0.0145442 28.2544 -0.0107449 28.0776 0.00415533C28.0408 0.00242125 28.0039 0.00242125 27.967 0.00415533ZM29.7318 8.31629C29.0836 8.31629 28.5553 8.84352 28.5553 9.49315V16.5543C28.5553 17.2016 29.0836 17.7311 29.7318 17.7311H33.7768L41.4972 25.2689C42.6738 26.4458 43.8503 25.8432 43.8503 24.2392V21.2229L30.9448 8.31629H29.7318Z" fill="#2D3648"/>
</svg>
