<svg width="28" height="44" viewBox="0 0 28 44" fill="none" xmlns="http://www.w3.org/2000/svg">
<path d="M23.3337 24.5V22.1667C23.3337 20.929 22.842 19.742 21.9668 18.8668C21.0917 17.9917 19.9047 17.5 18.667 17.5H9.33366C8.09598 17.5 6.909 17.9917 6.03383 18.8668C5.15866 19.742 4.66699 20.929 4.66699 22.1667V24.5" stroke="#2D3648" stroke-width="2" stroke-linecap="round" stroke-linejoin="round"/>
<path d="M13.9997 12.8333C16.577 12.8333 18.6663 10.744 18.6663 8.16667C18.6663 5.58934 16.577 3.5 13.9997 3.5C11.4223 3.5 9.33301 5.58934 9.33301 8.16667C9.33301 10.744 11.4223 12.8333 13.9997 12.8333Z" stroke="#2D3648" stroke-width="2" stroke-linecap="round" stroke-linejoin="round"/>
<path d="M13.858 42.495C13.78 42.495 13.732 42.483 13.714 42.459C13.696 42.441 13.687 42.396 13.687 42.324V37.806L11.932 42.297C11.902 42.363 11.875 42.405 11.851 42.423C11.827 42.441 11.782 42.45 11.716 42.45H10.933C10.867 42.45 10.819 42.441 10.789 42.423C10.765 42.405 10.741 42.363 10.717 42.297L8.962 37.806V42.324C8.962 42.396 8.953 42.441 8.935 42.459C8.917 42.483 8.869 42.495 8.791 42.495H7.909C7.831 42.495 7.783 42.483 7.765 42.459C7.747 42.441 7.738 42.396 7.738 42.324V35.835C7.738 35.709 7.75 35.634 7.774 35.61C7.804 35.58 7.879 35.565 7.999 35.565H9.007C9.061 35.565 9.103 35.574 9.133 35.592C9.163 35.61 9.19 35.649 9.214 35.709L11.32 40.938L13.435 35.709C13.471 35.613 13.546 35.565 13.66 35.565H14.641C14.767 35.565 14.842 35.58 14.866 35.61C14.896 35.634 14.911 35.709 14.911 35.835V42.324C14.911 42.396 14.899 42.441 14.875 42.459C14.857 42.483 14.812 42.495 14.74 42.495H13.858ZM18.1308 42.684C17.9748 43.128 17.7798 43.446 17.5458 43.638C17.3118 43.836 17.0328 43.935 16.7088 43.935C16.6428 43.935 16.5468 43.929 16.4208 43.917C16.2948 43.911 16.1718 43.884 16.0518 43.836C15.9858 43.806 15.9408 43.779 15.9168 43.755C15.8988 43.737 15.8928 43.695 15.8988 43.629L15.9618 42.891C15.9678 42.837 15.9858 42.804 16.0157 42.792C16.0458 42.786 16.0848 42.792 16.1328 42.81C16.2168 42.84 16.3008 42.861 16.3848 42.873C16.4748 42.891 16.5648 42.897 16.6548 42.891C16.7028 42.885 16.7478 42.873 16.7898 42.855C16.8318 42.837 16.8678 42.801 16.8978 42.747C16.9638 42.609 17.0238 42.474 17.0778 42.342C17.1378 42.21 17.1948 42.057 17.2488 41.883L15.7548 37.635C15.7248 37.545 15.7217 37.488 15.7458 37.464C15.7698 37.44 15.8178 37.428 15.8898 37.428H16.7448C16.7988 37.428 16.8348 37.437 16.8528 37.455C16.8768 37.467 16.8978 37.506 16.9158 37.572L17.8068 40.434L18.6978 37.572C18.7158 37.506 18.7338 37.467 18.7518 37.455C18.7758 37.437 18.8148 37.428 18.8688 37.428H19.7418C19.8258 37.428 19.8738 37.443 19.8858 37.473C19.9038 37.503 19.8978 37.56 19.8678 37.644L18.1308 42.684Z" fill="#2D3648"/>
</svg>
