<svg width="21" height="20" viewBox="0 0 21 20" fill="none" xmlns="http://www.w3.org/2000/svg">
<circle cx="10.5" cy="10" r="10" fill="#313C7A"/>
<g clip-path="url(#clip0_125_3897)">
<path d="M11.6427 5.31217C11.6427 4.87428 11.281 4.52051 10.8332 4.52051C10.3854 4.52051 10.0237 4.87428 10.0237 5.31217V8.87467H6.38081C5.93304 8.87467 5.57129 9.22845 5.57129 9.66634C5.57129 10.1042 5.93304 10.458 6.38081 10.458H10.0237V14.0205C10.0237 14.4584 10.3854 14.8122 10.8332 14.8122C11.281 14.8122 11.6427 14.4584 11.6427 14.0205V10.458H15.2856C15.7333 10.458 16.0951 10.1042 16.0951 9.66634C16.0951 9.22845 15.7333 8.87467 15.2856 8.87467H11.6427V5.31217Z" fill="white"/>
</g>
<defs>
<clipPath id="clip0_125_3897">
<rect width="11.3333" height="12.6667" fill="white" transform="translate(5.16699 3.33301)"/>
</clipPath>
</defs>
</svg>