<svg width="80" height="52" viewBox="0 0 80 52" fill="none" xmlns="http://www.w3.org/2000/svg">
<path d="M16.6923 45.2437C16.6923 45.4117 16.6083 45.4957 16.4403 45.4957H15.7923C15.6243 45.4957 15.5403 45.4117 15.5403 45.2437V43.7497C15.2283 44.4697 14.8083 44.9857 14.2803 45.2977C13.7643 45.6217 13.1103 45.7837 12.3183 45.7837C10.0743 45.7837 8.95232 44.5297 8.95232 42.0217V36.0097C8.95232 35.8417 9.03632 35.7577 9.20432 35.7577H9.92432C10.0923 35.7577 10.1763 35.8417 10.1763 36.0097V41.6977C10.1763 43.7377 10.9563 44.7577 12.5163 44.7577C12.9723 44.7577 13.3803 44.6617 13.7403 44.4697C14.1123 44.2657 14.4243 43.9957 14.6763 43.6597C14.9283 43.3117 15.1203 42.9097 15.2523 42.4537C15.3843 41.9977 15.4443 41.5177 15.4323 41.0137V36.0097C15.4323 35.8417 15.5163 35.7577 15.6843 35.7577H16.4043C16.5723 35.7577 16.6563 35.8417 16.6563 36.0097V43.2457C16.6563 43.6417 16.6563 43.9957 16.6563 44.3077C16.6683 44.6197 16.6803 44.9317 16.6923 45.2437ZM27.5723 45.2437C27.5723 45.4117 27.4883 45.4957 27.3203 45.4957H26.6003C26.4323 45.4957 26.3483 45.4117 26.3483 45.2437V39.5737C26.3483 38.4697 26.1503 37.6897 25.7543 37.2337C25.3583 36.7657 24.8003 36.5317 24.0803 36.5317C23.1083 36.5317 22.3643 36.8017 21.8483 37.3417C21.3443 37.8817 21.0923 38.6377 21.0923 39.6097V45.2437C21.0923 45.4117 21.0083 45.4957 20.8403 45.4957H20.1203C19.9523 45.4957 19.8683 45.4117 19.8683 45.2437V38.0437C19.8683 37.5277 19.8623 37.1257 19.8503 36.8377C19.8503 36.5497 19.8383 36.2737 19.8143 36.0097C19.8023 35.9257 19.8203 35.8657 19.8683 35.8297C19.9283 35.7817 19.9943 35.7577 20.0663 35.7577H20.7143C20.8823 35.7577 20.9663 35.8417 20.9663 36.0097V36.9997C21.3023 36.4837 21.7043 36.1057 22.1723 35.8657C22.6523 35.6257 23.3063 35.5057 24.1343 35.5057C25.2743 35.5057 26.1323 35.8357 26.7083 36.4957C27.2843 37.1557 27.5723 38.0857 27.5723 39.2857V45.2437ZM30.8024 38.0437C30.8024 37.5397 30.7964 37.1437 30.7844 36.8557C30.7724 36.5557 30.7544 36.2737 30.7304 36.0097C30.7304 35.8417 30.8144 35.7577 30.9824 35.7577H31.6484C31.8164 35.7577 31.9004 35.8417 31.9004 36.0097V36.9817C32.1764 36.5377 32.5484 36.1897 33.0164 35.9377C33.4844 35.6737 34.0604 35.5417 34.7444 35.5417C35.4644 35.5417 36.0944 35.7217 36.6344 36.0817C37.1744 36.4297 37.5044 36.9457 37.6244 37.6297C37.8764 36.9457 38.2784 36.4297 38.8304 36.0817C39.3944 35.7217 40.0424 35.5417 40.7744 35.5417C41.2424 35.5417 41.6624 35.6257 42.0344 35.7937C42.4184 35.9617 42.7424 36.1957 43.0064 36.4957C43.2824 36.7837 43.4924 37.1257 43.6364 37.5217C43.7804 37.9177 43.8524 38.3377 43.8524 38.7817V45.2437C43.8524 45.4117 43.7684 45.4957 43.6004 45.4957H42.9164C42.7484 45.4957 42.6644 45.4177 42.6644 45.2617V39.0337C42.6644 37.3897 41.9744 36.5677 40.5944 36.5677C40.1744 36.5677 39.7964 36.6637 39.4604 36.8557C39.1364 37.0357 38.8544 37.2877 38.6144 37.6117C38.3864 37.9357 38.2124 38.3137 38.0924 38.7457C37.9844 39.1777 37.9364 39.6337 37.9484 40.1137V45.2437C37.9484 45.4117 37.8644 45.4957 37.6964 45.4957H36.9764C36.8084 45.4957 36.7244 45.4117 36.7244 45.2437V39.0337C36.7244 37.3897 36.0284 36.5677 34.6364 36.5677C33.8204 36.5677 33.1784 36.8317 32.7104 37.3597C32.2424 37.8877 32.0084 38.5837 32.0084 39.4477V45.2437C32.0084 45.4117 31.9244 45.4957 31.7564 45.4957H31.0544C30.8864 45.4957 30.8024 45.4117 30.8024 45.2437V38.0437ZM54.872 45.2437C54.872 45.4117 54.788 45.4957 54.62 45.4957H53.972C53.804 45.4957 53.72 45.4117 53.72 45.2437V43.7497C53.408 44.4697 52.988 44.9857 52.46 45.2977C51.944 45.6217 51.29 45.7837 50.498 45.7837C48.254 45.7837 47.132 44.5297 47.132 42.0217V36.0097C47.132 35.8417 47.216 35.7577 47.384 35.7577H48.104C48.272 35.7577 48.356 35.8417 48.356 36.0097V41.6977C48.356 43.7377 49.136 44.7577 50.696 44.7577C51.152 44.7577 51.56 44.6617 51.92 44.4697C52.292 44.2657 52.604 43.9957 52.856 43.6597C53.108 43.3117 53.3 42.9097 53.432 42.4537C53.564 41.9977 53.624 41.5177 53.612 41.0137V36.0097C53.612 35.8417 53.696 35.7577 53.864 35.7577H54.584C54.752 35.7577 54.836 35.8417 54.836 36.0097V43.2457C54.836 43.6417 54.836 43.9957 54.836 44.3077C54.848 44.6197 54.86 44.9317 54.872 45.2437ZM62.584 45.5137C62.08 45.6937 61.582 45.7837 61.09 45.7837C60.118 45.7837 59.476 45.4657 59.164 44.8297C58.96 44.3977 58.858 43.6357 58.858 42.5437V36.8017H57.166C56.998 36.8017 56.914 36.7177 56.914 36.5497V36.0097C56.914 35.8417 56.998 35.7577 57.166 35.7577H58.858V33.3277C58.858 33.1477 58.936 33.0577 59.092 33.0577H59.848C60.004 33.0577 60.082 33.1477 60.082 33.3277V35.7577H62.08C62.248 35.7577 62.332 35.8417 62.332 36.0097V36.5497C62.332 36.7177 62.248 36.8017 62.08 36.8017H60.082V43.1557C60.082 44.2237 60.514 44.7577 61.378 44.7577C61.714 44.7577 62.092 44.6857 62.512 44.5417C62.572 44.5177 62.626 44.5177 62.674 44.5417C62.734 44.5657 62.764 44.6137 62.764 44.6857L62.8 45.1537C62.824 45.3217 62.752 45.4417 62.584 45.5137ZM70.5991 39.9517C70.5991 39.4597 70.5511 39.0217 70.4551 38.6377C70.3591 38.2537 70.2091 37.9057 70.0051 37.5937C69.5611 36.8857 68.9191 36.5317 68.0791 36.5317C67.2151 36.5317 66.5131 36.8917 65.9731 37.6117C65.7571 37.9357 65.5771 38.3077 65.4331 38.7277C65.2891 39.1477 65.2111 39.5557 65.1991 39.9517H70.5991ZM65.1991 40.9777C65.1871 41.5777 65.2531 42.1117 65.3971 42.5797C65.5531 43.0357 65.7751 43.4197 66.0631 43.7317C66.3511 44.0437 66.6931 44.2837 67.0891 44.4517C67.4971 44.6197 67.9471 44.7037 68.4391 44.7037C68.9191 44.7037 69.3691 44.6617 69.7891 44.5777C70.2091 44.4817 70.5991 44.3317 70.9591 44.1277C71.1151 44.0557 71.1931 44.0977 71.1931 44.2537V45.0637C71.1931 45.1717 71.1271 45.2557 70.9951 45.3157C70.5991 45.4717 70.1851 45.5857 69.7531 45.6577C69.3211 45.7417 68.8531 45.7837 68.3491 45.7837C66.8731 45.7837 65.7571 45.3577 65.0011 44.5057C64.2451 43.6417 63.8671 42.3457 63.8671 40.6177C63.8671 39.0937 64.2451 37.8637 65.0011 36.9277C65.7931 35.9797 66.7951 35.5057 68.0071 35.5057C68.6791 35.5057 69.2611 35.6257 69.7531 35.8657C70.2451 36.1057 70.6651 36.4657 71.0131 36.9457C71.6251 37.7977 71.9311 38.9377 71.9311 40.3657C71.9311 40.5217 71.9251 40.6417 71.9131 40.7257C71.9131 40.8097 71.8951 40.8697 71.8591 40.9057C71.8231 40.9417 71.7571 40.9657 71.6611 40.9777C71.5771 40.9777 71.4511 40.9777 71.2831 40.9777H65.1991Z" fill="#2D3648"/>
<path d="M54 14.8571C53.9996 13.301 53.5834 11.776 52.7982 10.4537C52.0129 9.13142 50.8899 8.06441 49.5556 7.37283V22.3228C52.1867 20.9671 54 18.1442 54 14.8571ZM30 9.28568V20.4285H37.1111L46 29.7142V0L37.1111 9.28568H30Z" fill="#2D3648"/>
</svg>
