<svg width="21" height="20" viewBox="0 0 21 20" fill="none" xmlns="http://www.w3.org/2000/svg">
<path d="M2.5 2.85714C2.5 1.28125 3.39687 0 4.5 0H16.5C17.6031 0 18.5 1.28125 18.5 2.85714V14.2857H16.5V2.85714H4.5V14.2857H2.5V2.85714ZM0.5 16.5714C0.5 16.0982 0.76875 15.7143 1.1 15.7143H19.9C20.2312 15.7143 20.5 16.0982 20.5 16.5714C20.5 18.4643 19.425 20 18.1 20H2.9C1.575 20 0.5 18.4643 0.5 16.5714ZM9.28125 7.90179L8.3125 9.28571L9.28125 10.6696C9.575 11.0893 9.575 11.7679 9.28125 12.183C8.9875 12.5982 8.5125 12.6027 8.22188 12.183L6.72188 10.0402C6.42813 9.62054 6.42813 8.94196 6.72188 8.52679L8.22188 6.38393C8.51562 5.96429 8.99063 5.96429 9.28125 6.38393C9.57187 6.80357 9.575 7.48214 9.28125 7.89732V7.90179ZM12.7812 6.38393L14.2812 8.52679C14.575 8.94643 14.575 9.625 14.2812 10.0402L12.7812 12.183C12.4875 12.6027 12.0125 12.6027 11.7219 12.183C11.4313 11.7634 11.4281 11.0848 11.7219 10.6696L12.6906 9.28571L11.7219 7.90179C11.4281 7.48214 11.4281 6.80357 11.7219 6.38839C12.0156 5.97321 12.4906 5.96875 12.7812 6.38839V6.38393Z" fill="#313C7A"/>
</svg>
